G04 EAGLE Gerber X2 export*
%TF.Part,Single*%
%TF.FileFunction,Copper,L1,Top,Mixed*%
%TF.FilePolarity,Positive*%
%TF.GenerationSoftware,Autodesk,EAGLE,9.7.0*%
%TF.CreationDate,2022-02-15T16:10:41Z*%
G75*
%MOMM*%
%FSLAX34Y34*%
%LPD*%
%INTop Copper*%
%AMOC8*
5,1,8,0,0,1.08239X$1,22.5*%
G01*
G04 Define Apertures*
%ADD10C,0.152400*%
%ADD11R,1.000000X0.900000*%
%ADD12C,1.524000*%
%ADD13R,1.500000X1.300000*%
%ADD14R,1.300000X1.500000*%
%ADD15R,2.000000X1.200000*%
%ADD16R,1.200000X1.500000*%
%ADD17R,1.361800X0.761800*%
%ADD18C,0.762000*%
%ADD19C,1.905000*%
D10*
X199599Y17695D02*
X205869Y17695D01*
X202734Y17695D02*
X202734Y36507D01*
X199599Y36507D02*
X205869Y36507D01*
X212072Y36507D02*
X212072Y23966D01*
X218343Y17695D01*
X224614Y23966D01*
X224614Y36507D01*
D11*
X129160Y434520D03*
X145160Y434520D03*
X145160Y393520D03*
X129160Y393520D03*
X208440Y393520D03*
X192440Y393520D03*
X192440Y434520D03*
X208440Y434520D03*
D12*
X269240Y355600D02*
X284480Y355600D01*
X284480Y330200D02*
X269240Y330200D01*
X269240Y304800D02*
X284480Y304800D01*
X284480Y279400D02*
X269240Y279400D01*
X269240Y254000D02*
X284480Y254000D01*
X284480Y228600D02*
X269240Y228600D01*
X269240Y203200D02*
X284480Y203200D01*
X284480Y177800D02*
X269240Y177800D01*
X269240Y152400D02*
X284480Y152400D01*
X284480Y127000D02*
X269240Y127000D01*
X269240Y101600D02*
X284480Y101600D01*
D13*
X27940Y425300D03*
X27940Y406300D03*
X27940Y382880D03*
X27940Y363880D03*
X27940Y321920D03*
X27940Y302920D03*
D14*
X107340Y345440D03*
X126340Y345440D03*
D13*
X27940Y260960D03*
X27940Y241960D03*
D14*
X183540Y345440D03*
X202540Y345440D03*
D12*
X58420Y25400D02*
X58420Y10160D01*
X83820Y10160D02*
X83820Y25400D01*
X109220Y25400D02*
X109220Y10160D01*
X134620Y10160D02*
X134620Y25400D01*
D15*
X219380Y255200D03*
X219380Y235200D03*
X219380Y215200D03*
X219380Y195200D03*
X219380Y175200D03*
X219380Y155200D03*
X219380Y135200D03*
X219380Y115200D03*
D16*
X194380Y270200D03*
X174380Y270200D03*
X154380Y270200D03*
X134380Y270200D03*
X114380Y270200D03*
X94380Y270200D03*
D15*
X69380Y255200D03*
X69380Y235200D03*
X69380Y215200D03*
X69380Y195200D03*
X69380Y175200D03*
X69380Y155200D03*
X69380Y135200D03*
X69380Y115200D03*
D17*
X74171Y424270D03*
X74171Y403770D03*
D13*
X170300Y423520D03*
X170300Y404520D03*
D18*
X151130Y393700D02*
X144780Y393700D01*
X151130Y393700D02*
X157480Y387350D01*
X182880Y387350D01*
X189230Y393700D01*
X189230Y438150D02*
X170180Y438150D01*
X144780Y438150D01*
X145160Y434520D01*
X189230Y438150D02*
X192440Y434520D01*
X170180Y438150D02*
X170180Y425450D01*
X170300Y423520D01*
X189230Y431800D02*
X189230Y393700D01*
X192440Y393520D01*
X189230Y431800D02*
X192440Y434520D01*
X68580Y260350D02*
X30480Y260350D01*
X27940Y260960D01*
X68580Y260350D02*
X69380Y255200D01*
X69850Y255636D02*
X69850Y281940D01*
X104140Y316230D01*
X69850Y255636D02*
X69380Y255200D01*
X144780Y387350D02*
X144780Y393700D01*
X144780Y387350D02*
X132080Y374650D01*
X144780Y393700D02*
X145160Y393520D01*
D19*
X104140Y316230D03*
X132080Y374650D03*
D18*
X240030Y379730D02*
X248158Y371602D01*
D19*
X249277Y306197D03*
D18*
X248158Y307316D02*
X248158Y371602D01*
X248158Y307316D02*
X249277Y306197D01*
X190500Y379730D02*
X182880Y387350D01*
X190500Y379730D02*
X240030Y379730D01*
X132080Y349250D02*
X126340Y345440D01*
X135890Y349250D02*
X135890Y316230D01*
X165100Y367030D02*
X163830Y368300D01*
X24130Y304800D02*
X17780Y304800D01*
X8890Y313690D01*
X8890Y346710D01*
X24130Y361950D01*
X24130Y304800D02*
X27940Y302920D01*
X24130Y361950D02*
X27940Y363880D01*
X8890Y391160D02*
X17066Y399336D01*
X8890Y391160D02*
X8890Y346710D01*
X17066Y399336D02*
X27940Y406300D01*
X8890Y313690D02*
X8890Y80009D01*
X38100Y50800D01*
X153670Y220980D02*
X174741Y242051D01*
X153670Y220980D02*
X153670Y147320D01*
X88900Y82550D01*
X88900Y63500D01*
X73660Y48260D01*
X40640Y48260D01*
X38100Y50800D01*
X216876Y252696D02*
X219380Y255200D01*
X216876Y252696D02*
X174741Y242051D01*
D19*
X135890Y316230D03*
X163830Y368300D03*
X38100Y50800D03*
D18*
X217170Y281889D02*
X211836Y287223D01*
X217170Y281889D02*
X217170Y257410D01*
X219380Y255200D01*
X211836Y318364D02*
X202540Y327660D01*
X202540Y345440D01*
X211836Y318364D02*
X211836Y287223D01*
X202540Y345440D02*
X202540Y357374D01*
X192884Y367030D01*
X165100Y367030D01*
X135890Y349250D02*
X132080Y349250D01*
X135890Y349250D02*
X147320Y349250D01*
X165100Y367030D01*
X186690Y135890D02*
X207010Y115570D01*
X219058Y115570D01*
X219380Y115200D01*
X208280Y393700D02*
X208280Y431800D01*
X208280Y393700D02*
X208440Y393520D01*
X208280Y431800D02*
X208440Y434520D01*
X40640Y440055D02*
X34925Y434340D01*
X33738Y434340D01*
X27940Y425300D01*
X208440Y434520D02*
X208163Y440807D01*
X219380Y115200D02*
X214630Y114300D01*
D19*
X186690Y135890D03*
X113030Y76200D03*
X40640Y440055D03*
D18*
X198246Y450724D02*
X208163Y440807D01*
X198246Y450724D02*
X51944Y450724D01*
X41275Y440055D01*
X40640Y440055D01*
X214630Y114300D02*
X214630Y95072D01*
X195758Y76200D01*
X113030Y76200D01*
X69380Y115200D02*
X67310Y113130D01*
X67310Y87630D01*
D19*
X67310Y87630D03*
D18*
X68580Y234950D02*
X37523Y234950D01*
X34047Y235853D01*
X27940Y241960D01*
X68580Y234950D02*
X69380Y235200D01*
X55880Y323850D02*
X125730Y393700D01*
X43180Y323850D02*
X30480Y323850D01*
X43180Y323850D02*
X55880Y323850D01*
X125730Y393700D02*
X129160Y393520D01*
X30480Y323850D02*
X27940Y321920D01*
X129160Y434520D02*
X125730Y438150D01*
X69380Y195200D02*
X68490Y194310D01*
X38100Y194310D01*
X33020Y189230D01*
D19*
X50800Y412750D03*
X44578Y346582D03*
X33020Y189230D03*
D18*
X43180Y323850D02*
X43180Y345184D01*
X44578Y346582D01*
X65579Y438150D02*
X125730Y438150D01*
X65579Y438150D02*
X50800Y423371D01*
X50800Y412750D01*
X44450Y215900D02*
X68580Y215900D01*
X44450Y215900D02*
X43180Y214630D01*
X68580Y215900D02*
X69380Y215200D01*
D19*
X43180Y214630D03*
D18*
X54610Y292100D02*
X70993Y308483D01*
X70993Y318567D01*
X97866Y345440D02*
X107340Y345440D01*
X97866Y345440D02*
X70993Y318567D01*
D19*
X49537Y292100D03*
D18*
X54610Y292100D01*
X62230Y387350D02*
X30480Y387350D01*
X240030Y165100D02*
X230130Y155200D01*
X27940Y382880D02*
X30480Y387350D01*
X219380Y155200D02*
X230130Y155200D01*
D19*
X62230Y387350D03*
X230251Y358140D03*
D18*
X230251Y292100D02*
X240030Y282321D01*
X230251Y292100D02*
X230251Y358140D01*
X240030Y282321D02*
X240030Y165100D01*
X214630Y177800D02*
X195580Y177800D01*
X214630Y177800D02*
X219380Y175200D01*
D19*
X190627Y172543D03*
D18*
X190627Y172847D02*
X195580Y177800D01*
X190627Y172847D02*
X190627Y172543D01*
X68580Y133350D02*
X55880Y133350D01*
X34290Y111760D01*
X34290Y87630D01*
X68580Y133350D02*
X69380Y135200D01*
D19*
X34290Y87630D03*
D18*
X182880Y308610D02*
X182880Y342900D01*
X182880Y308610D02*
X185420Y306070D01*
X182880Y342900D02*
X183540Y345440D01*
D19*
X185420Y306070D03*
X189230Y218440D03*
X153670Y102616D03*
D18*
X168783Y117729D01*
X168783Y197993D02*
X189230Y218440D01*
X168783Y197993D02*
X168783Y117729D01*
X105410Y177800D02*
X74930Y177800D01*
X105410Y177800D02*
X132080Y204470D01*
X74930Y177800D02*
X69380Y175200D01*
D19*
X132080Y204470D03*
D18*
X81280Y152400D02*
X74930Y152400D01*
X81280Y152400D02*
X93980Y139700D01*
X74930Y152400D02*
X69380Y155200D01*
D19*
X93980Y139700D03*
D18*
X68580Y361950D02*
X85119Y378489D01*
X74171Y403770D01*
X134380Y270200D02*
X134380Y242330D01*
D19*
X68580Y361950D03*
X98557Y234950D03*
D18*
X127000Y234950D02*
X134380Y242330D01*
X127000Y234950D02*
X98557Y234950D01*
X170300Y404520D02*
X167760Y407060D01*
X154881Y407060D01*
X147831Y414110D01*
X107191Y414110D01*
X97031Y424270D01*
X74171Y424270D01*
M02*
