G04 EAGLE Gerber X2 export*
%TF.Part,Single*%
%TF.FileFunction,Copper,L2,Bot,Mixed*%
%TF.FilePolarity,Positive*%
%TF.GenerationSoftware,Autodesk,EAGLE,9.7.0*%
%TF.CreationDate,2022-02-15T16:10:41Z*%
G75*
%MOMM*%
%FSLAX34Y34*%
%LPD*%
%INBottom Copper*%
%AMOC8*
5,1,8,0,0,1.08239X$1,22.5*%
G01*
G04 Define Apertures*
%ADD10R,1.500000X1.300000*%
%ADD11R,0.897900X1.860300*%
%ADD12R,3.189100X1.860300*%
%ADD13C,1.524000*%
%ADD14R,1.397300X3.415300*%
%ADD15C,0.762000*%
%ADD16C,1.905000*%
D10*
X170180Y155600D03*
X170180Y174600D03*
D11*
X96380Y348250D03*
X119380Y348250D03*
X142380Y348250D03*
D12*
X119380Y286750D03*
D13*
X269240Y355600D02*
X284480Y355600D01*
X284480Y330200D02*
X269240Y330200D01*
X269240Y304800D02*
X284480Y304800D01*
X284480Y279400D02*
X269240Y279400D01*
X269240Y254000D02*
X284480Y254000D01*
X284480Y228600D02*
X269240Y228600D01*
X269240Y203200D02*
X284480Y203200D01*
X284480Y177800D02*
X269240Y177800D01*
X269240Y152400D02*
X284480Y152400D01*
X284480Y127000D02*
X269240Y127000D01*
X269240Y101600D02*
X284480Y101600D01*
X58420Y25400D02*
X58420Y10160D01*
X83820Y10160D02*
X83820Y25400D01*
X109220Y25400D02*
X109220Y10160D01*
X134620Y10160D02*
X134620Y25400D01*
D10*
X139700Y177140D03*
X139700Y158140D03*
X111760Y158140D03*
X111760Y177140D03*
D14*
X147565Y408940D03*
X106435Y408940D03*
D15*
X113030Y120650D02*
X113030Y114300D01*
X113030Y120650D02*
X113030Y152400D01*
X113030Y114300D02*
X134620Y92710D01*
X134620Y17780D01*
X113030Y152400D02*
X111760Y158140D01*
X96520Y348390D02*
X96520Y374650D01*
X96520Y348390D02*
X96380Y348250D01*
X106680Y408695D02*
X106435Y408940D01*
X106680Y408695D02*
X106680Y374650D01*
X96380Y348250D02*
X96520Y348110D01*
X96520Y316230D01*
X104140Y316230D01*
X113030Y120650D02*
X87630Y120650D01*
X74930Y133350D01*
X96520Y374650D02*
X106680Y374650D01*
X132080Y374650D01*
D16*
X104140Y316230D03*
X132080Y374650D03*
X249277Y306197D03*
D15*
X250674Y304800D02*
X258294Y304800D01*
X250674Y304800D02*
X249277Y306197D01*
X258294Y304800D02*
X276860Y304800D01*
X258294Y304800D02*
X258294Y304800D01*
X104140Y316230D02*
X101599Y316230D01*
X95053Y309683D01*
X95053Y266898D01*
X119004Y242946D01*
X74930Y178379D02*
X74930Y133350D01*
X119004Y222453D02*
X119004Y242946D01*
X119004Y222453D02*
X74930Y178379D01*
X135890Y316230D02*
X119380Y332740D01*
X119380Y348250D01*
X163830Y392675D02*
X147565Y408940D01*
X163830Y392675D02*
X163830Y368300D01*
X58420Y30480D02*
X58420Y17780D01*
X58420Y30480D02*
X38100Y50800D01*
D16*
X135890Y316230D03*
X163830Y368300D03*
X38100Y50800D03*
D15*
X170180Y152400D02*
X186690Y135890D01*
X170180Y152400D02*
X170180Y155600D01*
X113030Y76200D02*
X8890Y180340D01*
D16*
X186690Y135890D03*
X113030Y76200D03*
X40640Y440055D03*
D15*
X8890Y408305D01*
X8890Y180340D01*
X109220Y45720D02*
X109220Y17780D01*
X109220Y45720D02*
X67310Y87630D01*
D16*
X67310Y87630D03*
D15*
X43180Y405130D02*
X50800Y412750D01*
X43180Y405130D02*
X43180Y347980D01*
X24130Y198120D02*
X33020Y189230D01*
X24130Y198120D02*
X24130Y328930D01*
X43180Y347980D01*
D16*
X50800Y412750D03*
X44578Y346582D03*
X33020Y189230D03*
D15*
X44578Y346582D02*
X43180Y347980D01*
X44450Y215900D02*
X43180Y214630D01*
D16*
X43180Y214630D03*
X49537Y292100D03*
D15*
X44450Y287013D02*
X44450Y215900D01*
X44450Y287013D02*
X49537Y292100D01*
X62230Y387350D02*
X74930Y400050D01*
D16*
X62230Y387350D03*
D15*
X79165Y439420D02*
X179915Y439420D01*
X79165Y439420D02*
X74930Y435185D01*
X74930Y400050D01*
D16*
X230251Y358140D03*
D15*
X230251Y389084D01*
X179915Y439420D01*
X170180Y174600D02*
X170180Y171450D01*
D16*
X190627Y172543D03*
D15*
X189534Y171450D01*
X170180Y171450D01*
X83820Y38100D02*
X34290Y87630D01*
X83820Y38100D02*
X83820Y17780D01*
D16*
X34290Y87630D03*
D15*
X144780Y342900D02*
X142380Y348250D01*
X204927Y330200D02*
X276860Y330200D01*
X192227Y342900D02*
X144780Y342900D01*
X192227Y342900D02*
X204927Y330200D01*
X201930Y306070D02*
X185420Y306070D01*
X201930Y306070D02*
X239395Y268605D01*
X250190Y279400D01*
X239395Y268605D02*
X189230Y218440D01*
D16*
X185420Y306070D03*
X189230Y218440D03*
D15*
X250190Y279400D02*
X276860Y279400D01*
D16*
X153670Y102616D03*
D15*
X166116Y90170D01*
X212090Y90170D01*
X237998Y116078D01*
X276098Y153162D02*
X276860Y152400D01*
X276098Y153162D02*
X252452Y153162D01*
X237998Y138708D01*
X237998Y116078D01*
X208280Y199390D02*
X137160Y199390D01*
X132080Y204470D01*
X208280Y199390D02*
X237490Y228600D01*
X276860Y228600D01*
D16*
X132080Y204470D03*
D15*
X181813Y112903D02*
X199263Y112903D01*
X181813Y112903D02*
X139700Y155016D01*
X139700Y158140D01*
X276098Y203962D02*
X276860Y203200D01*
X276098Y203962D02*
X249912Y203962D01*
X215138Y169188D01*
X215138Y128778D02*
X199263Y112903D01*
X215138Y128778D02*
X215138Y169188D01*
X138430Y177800D02*
X113030Y177800D01*
X111760Y177140D01*
X138430Y177800D02*
X139700Y177140D01*
X93980Y171450D02*
X93980Y139700D01*
X93980Y171450D02*
X100330Y177800D01*
X106680Y177800D01*
X111760Y177140D01*
D16*
X93980Y139700D03*
X68580Y361950D03*
X98557Y234950D03*
D15*
X68580Y247147D02*
X68580Y361950D01*
X80777Y234950D02*
X98557Y234950D01*
X80777Y234950D02*
X68580Y247147D01*
M02*
