M48
;GenerationSoftware,Autodesk,EAGLE,9.7.0*%
;CreationDate,2022-02-15T16:10:41Z*%
FMAT,2
ICI,OFF
METRIC,TZ,000.000
T3C1.000
T2C1.016
T1C1.270
%
G90
M71
T1
X10414Y31623
X13208Y37465
X24928Y30620
X13589Y31623
X16383Y36830
X3810Y5080
X18669Y13589
X11303Y7620
X4064Y44005
X6731Y8763
X5080Y41275
X4458Y34658
X3302Y18923
X4318Y21463
X4954Y29210
X6223Y38735
X23025Y35814
X19063Y17254
X3429Y8763
X18542Y30607
X18923Y21844
X15367Y10262
X13208Y20447
X9398Y13970
X6858Y36195
X9856Y23495
T2
X27686Y35560
X27686Y33020
X27686Y30480
X27686Y27940
X27686Y25400
X27686Y22860
X27686Y20320
X27686Y17780
X27686Y15240
X27686Y12700
X27686Y10160
X5842Y1778
X8382Y1778
X10922Y1778
X13462Y1778
T3
X25146Y40640
X25146Y5080
M30