G04 EAGLE Gerber X2 export*
%TF.Part,Single*%
%TF.FileFunction,Legend,Top,1*%
%TF.FilePolarity,Positive*%
%TF.GenerationSoftware,Autodesk,EAGLE,9.7.0*%
%TF.CreationDate,2022-02-15T16:10:41Z*%
G75*
%MOMM*%
%FSLAX34Y34*%
%LPD*%
%INSilkscreen Top*%
%AMOC8*
5,1,8,0,0,1.08239X$1,22.5*%
G01*
G04 Define Apertures*
%ADD10C,0.203200*%
%ADD11C,0.127000*%
%ADD12C,0.152400*%
%ADD13C,0.762000*%
%ADD14R,0.508000X0.762000*%
%ADD15R,1.016000X0.762000*%
%ADD16R,0.762000X0.508000*%
%ADD17R,0.762000X1.016000*%
%ADD18C,0.254000*%
%ADD19C,0.120000*%
G36*
X251119Y132382D02*
X251827Y132432D01*
X252488Y132516D01*
X253102Y132633D01*
X253670Y132783D01*
X254192Y132967D01*
X254667Y133184D01*
X255095Y133434D01*
X255475Y133718D01*
X255804Y134035D01*
X256082Y134385D01*
X256310Y134768D01*
X256487Y135184D01*
X256614Y135633D01*
X256658Y135870D01*
X256690Y136116D01*
X256709Y136369D01*
X256715Y136631D01*
X256709Y136893D01*
X256690Y137147D01*
X256658Y137393D01*
X256613Y137630D01*
X256486Y138081D01*
X256308Y138500D01*
X256079Y138886D01*
X255799Y139240D01*
X255468Y139561D01*
X255086Y139850D01*
X254656Y140105D01*
X254180Y140327D01*
X253659Y140514D01*
X253091Y140668D01*
X252478Y140787D01*
X251820Y140872D01*
X251115Y140923D01*
X250365Y140940D01*
X249603Y140924D01*
X248889Y140875D01*
X248224Y140794D01*
X247606Y140681D01*
X247037Y140535D01*
X246516Y140356D01*
X246043Y140146D01*
X245618Y139902D01*
X245242Y139625D01*
X244917Y139312D01*
X244641Y138963D01*
X244416Y138579D01*
X244241Y138159D01*
X244172Y137935D01*
X244115Y137703D01*
X244072Y137461D01*
X244040Y137211D01*
X244022Y136952D01*
X244015Y136684D01*
X244022Y136408D01*
X244040Y136142D01*
X244071Y135885D01*
X244114Y135638D01*
X244170Y135400D01*
X244238Y135171D01*
X244412Y134743D01*
X244635Y134351D01*
X244907Y133998D01*
X245229Y133682D01*
X245601Y133404D01*
X246022Y133160D01*
X246493Y132949D01*
X247014Y132771D01*
X247584Y132625D01*
X248205Y132512D01*
X248875Y132431D01*
X249595Y132382D01*
X250365Y132366D01*
X251119Y132382D01*
G37*
%LPC*%
G36*
X249712Y133970D02*
X249107Y133999D01*
X248550Y134049D01*
X248040Y134118D01*
X247578Y134208D01*
X247163Y134317D01*
X246796Y134446D01*
X246476Y134595D01*
X246199Y134766D01*
X245959Y134963D01*
X245756Y135186D01*
X245590Y135434D01*
X245460Y135708D01*
X245368Y136008D01*
X245313Y136333D01*
X245294Y136684D01*
X245313Y137026D01*
X245369Y137343D01*
X245463Y137635D01*
X245594Y137902D01*
X245763Y138144D01*
X245969Y138361D01*
X246213Y138553D01*
X246494Y138720D01*
X246817Y138865D01*
X247186Y138990D01*
X247601Y139096D01*
X248062Y139183D01*
X248569Y139251D01*
X249122Y139299D01*
X249720Y139328D01*
X250365Y139337D01*
X250988Y139327D01*
X251570Y139297D01*
X252109Y139246D01*
X252607Y139175D01*
X253064Y139084D01*
X253479Y138973D01*
X253852Y138841D01*
X254184Y138689D01*
X254475Y138516D01*
X254728Y138319D01*
X254942Y138099D01*
X255117Y137855D01*
X255253Y137588D01*
X255350Y137298D01*
X255408Y136985D01*
X255428Y136649D01*
X255409Y136310D01*
X255352Y135995D01*
X255256Y135704D01*
X255123Y135437D01*
X254952Y135193D01*
X254743Y134973D01*
X254496Y134776D01*
X254210Y134603D01*
X253884Y134453D01*
X253513Y134322D01*
X253099Y134211D01*
X252640Y134121D01*
X252138Y134050D01*
X251591Y134000D01*
X251000Y133970D01*
X250365Y133960D01*
X249712Y133970D01*
G37*
%LPD*%
G36*
X253534Y112524D02*
X253929Y112577D01*
X254299Y112664D01*
X254644Y112786D01*
X254964Y112943D01*
X255260Y113135D01*
X255531Y113362D01*
X255778Y113624D01*
X255998Y113916D01*
X256188Y114236D01*
X256349Y114583D01*
X256481Y114956D01*
X256583Y115357D01*
X256657Y115784D01*
X256701Y116238D01*
X256715Y116720D01*
X256700Y117213D01*
X256656Y117677D01*
X256581Y118111D01*
X256477Y118515D01*
X256342Y118890D01*
X256178Y119236D01*
X255984Y119552D01*
X255761Y119838D01*
X255510Y120092D01*
X255236Y120313D01*
X254939Y120500D01*
X254618Y120652D01*
X254273Y120771D01*
X253905Y120856D01*
X253513Y120907D01*
X253098Y120924D01*
X252800Y120914D01*
X252515Y120883D01*
X252242Y120832D01*
X251982Y120760D01*
X251735Y120667D01*
X251501Y120554D01*
X251279Y120421D01*
X251070Y120267D01*
X251033Y120234D01*
X250877Y120095D01*
X250704Y119906D01*
X250550Y119701D01*
X250415Y119479D01*
X250299Y119241D01*
X250202Y118986D01*
X250125Y118715D01*
X250067Y118428D01*
X250032Y118428D01*
X249973Y118675D01*
X249895Y118909D01*
X249799Y119129D01*
X249684Y119336D01*
X249551Y119530D01*
X249415Y119693D01*
X249400Y119710D01*
X249231Y119877D01*
X249043Y120031D01*
X248841Y120168D01*
X248632Y120287D01*
X248413Y120388D01*
X248187Y120471D01*
X247951Y120535D01*
X247708Y120581D01*
X247455Y120608D01*
X247195Y120617D01*
X246838Y120601D01*
X246501Y120551D01*
X246183Y120469D01*
X245883Y120354D01*
X245602Y120205D01*
X245341Y120024D01*
X245098Y119809D01*
X244874Y119562D01*
X244672Y119286D01*
X244498Y118986D01*
X244351Y118663D01*
X244230Y118315D01*
X244136Y117943D01*
X244069Y117548D01*
X244029Y117128D01*
X244015Y116685D01*
X244029Y116252D01*
X244070Y115841D01*
X244138Y115453D01*
X244234Y115087D01*
X244357Y114745D01*
X244508Y114424D01*
X244686Y114127D01*
X244891Y113851D01*
X245118Y113604D01*
X245362Y113390D01*
X245623Y113208D01*
X245901Y113060D01*
X246195Y112944D01*
X246505Y112862D01*
X246833Y112813D01*
X247177Y112796D01*
X247438Y112805D01*
X247690Y112832D01*
X247934Y112878D01*
X248169Y112942D01*
X248396Y113024D01*
X248614Y113124D01*
X248824Y113242D01*
X249025Y113378D01*
X249214Y113531D01*
X249385Y113696D01*
X249539Y113875D01*
X249676Y114067D01*
X249795Y114272D01*
X249897Y114491D01*
X249982Y114723D01*
X250050Y114968D01*
X250085Y114968D01*
X250139Y114705D01*
X250213Y114454D01*
X250308Y114214D01*
X250422Y113987D01*
X250557Y113772D01*
X250712Y113569D01*
X250888Y113378D01*
X251083Y113199D01*
X251295Y113037D01*
X251519Y112896D01*
X251755Y112777D01*
X252003Y112680D01*
X252263Y112604D01*
X252535Y112550D01*
X252819Y112518D01*
X253115Y112507D01*
X253534Y112524D01*
G37*
%LPC*%
G36*
X252718Y114147D02*
X252466Y114178D01*
X252229Y114231D01*
X252006Y114305D01*
X251799Y114400D01*
X251605Y114515D01*
X251427Y114652D01*
X251263Y114811D01*
X251116Y114987D01*
X250989Y115181D01*
X250881Y115390D01*
X250793Y115616D01*
X250725Y115859D01*
X250676Y116118D01*
X250647Y116393D01*
X250637Y116685D01*
X250646Y116985D01*
X250673Y117268D01*
X250719Y117533D01*
X250782Y117782D01*
X250864Y118013D01*
X250964Y118227D01*
X251083Y118424D01*
X251219Y118603D01*
X251374Y118763D01*
X251546Y118902D01*
X251735Y119019D01*
X251943Y119115D01*
X252168Y119190D01*
X252411Y119243D01*
X252671Y119275D01*
X252949Y119286D01*
X253275Y119276D01*
X253578Y119247D01*
X253858Y119197D01*
X254115Y119128D01*
X254349Y119040D01*
X254561Y118931D01*
X254750Y118803D01*
X254915Y118656D01*
X255060Y118488D01*
X255185Y118299D01*
X255292Y118090D01*
X255378Y117861D01*
X255446Y117611D01*
X255494Y117340D01*
X255523Y117049D01*
X255533Y116737D01*
X255523Y116422D01*
X255493Y116128D01*
X255443Y115853D01*
X255374Y115599D01*
X255284Y115366D01*
X255174Y115152D01*
X255045Y114959D01*
X254896Y114786D01*
X254726Y114634D01*
X254537Y114502D01*
X254328Y114390D01*
X254099Y114299D01*
X253850Y114228D01*
X253581Y114177D01*
X253293Y114146D01*
X252984Y114136D01*
X252718Y114147D01*
G37*
G36*
X247030Y114417D02*
X246793Y114444D01*
X246573Y114490D01*
X246369Y114553D01*
X246181Y114635D01*
X246010Y114735D01*
X245854Y114854D01*
X245714Y114990D01*
X245591Y115144D01*
X245485Y115314D01*
X245394Y115501D01*
X245320Y115705D01*
X245263Y115925D01*
X245222Y116162D01*
X245197Y116415D01*
X245189Y116685D01*
X245197Y116963D01*
X245222Y117223D01*
X245263Y117465D01*
X245320Y117689D01*
X245393Y117895D01*
X245483Y118083D01*
X245590Y118254D01*
X245712Y118406D01*
X245851Y118540D01*
X246007Y118657D01*
X246178Y118755D01*
X246366Y118836D01*
X246571Y118899D01*
X246792Y118944D01*
X247029Y118971D01*
X247282Y118980D01*
X247559Y118970D01*
X247816Y118943D01*
X248053Y118898D01*
X248271Y118834D01*
X248468Y118752D01*
X248646Y118652D01*
X248804Y118534D01*
X248942Y118397D01*
X249062Y118243D01*
X249166Y118073D01*
X249254Y117886D01*
X249326Y117682D01*
X249382Y117462D01*
X249422Y117225D01*
X249446Y116972D01*
X249454Y116702D01*
X249446Y116436D01*
X249420Y116186D01*
X249376Y115951D01*
X249315Y115731D01*
X249237Y115527D01*
X249142Y115338D01*
X249029Y115165D01*
X248898Y115008D01*
X248751Y114867D01*
X248589Y114745D01*
X248410Y114642D01*
X248216Y114558D01*
X248006Y114492D01*
X247781Y114445D01*
X247539Y114417D01*
X247282Y114408D01*
X247030Y114417D01*
G37*
%LPD*%
G36*
X250795Y98704D02*
X251262Y98738D01*
X251712Y98796D01*
X252147Y98877D01*
X252565Y98981D01*
X252967Y99108D01*
X253354Y99259D01*
X253724Y99432D01*
X254076Y99628D01*
X254407Y99844D01*
X254716Y100080D01*
X255004Y100338D01*
X255271Y100616D01*
X255517Y100914D01*
X255741Y101234D01*
X255944Y101574D01*
X256125Y101932D01*
X256282Y102308D01*
X256414Y102700D01*
X256523Y103109D01*
X256607Y103534D01*
X256667Y103976D01*
X256703Y104435D01*
X256715Y104911D01*
X256707Y105323D01*
X256681Y105728D01*
X256638Y106125D01*
X256578Y106515D01*
X256501Y106897D01*
X256407Y107271D01*
X256296Y107639D01*
X256168Y107998D01*
X256024Y108347D01*
X255866Y108682D01*
X255694Y109003D01*
X255508Y109311D01*
X255307Y109604D01*
X255093Y109884D01*
X254864Y110150D01*
X254622Y110402D01*
X250365Y110402D01*
X250365Y105173D01*
X251767Y105173D01*
X251767Y108861D01*
X253991Y108861D01*
X254290Y108512D01*
X254556Y108113D01*
X254789Y107664D01*
X254990Y107166D01*
X255151Y106633D01*
X255266Y106079D01*
X255335Y105505D01*
X255358Y104911D01*
X255336Y104395D01*
X255273Y103908D01*
X255167Y103450D01*
X255019Y103021D01*
X254829Y102620D01*
X254596Y102249D01*
X254322Y101906D01*
X254004Y101591D01*
X253651Y101310D01*
X253266Y101066D01*
X252851Y100860D01*
X252405Y100691D01*
X251928Y100560D01*
X251420Y100466D01*
X250882Y100410D01*
X250313Y100391D01*
X249742Y100409D01*
X249205Y100462D01*
X248701Y100550D01*
X248229Y100674D01*
X247791Y100833D01*
X247385Y101027D01*
X247013Y101256D01*
X246674Y101521D01*
X246371Y101819D01*
X246108Y102149D01*
X245886Y102510D01*
X245705Y102903D01*
X245563Y103327D01*
X245462Y103782D01*
X245402Y104270D01*
X245382Y104788D01*
X245389Y105125D01*
X245412Y105447D01*
X245449Y105756D01*
X245502Y106050D01*
X245570Y106331D01*
X245653Y106597D01*
X245750Y106849D01*
X245863Y107087D01*
X245993Y107312D01*
X246140Y107524D01*
X246305Y107724D01*
X246487Y107912D01*
X246688Y108087D01*
X246906Y108249D01*
X247142Y108399D01*
X247396Y108537D01*
X246923Y110131D01*
X246555Y109949D01*
X246213Y109748D01*
X245897Y109529D01*
X245607Y109292D01*
X245343Y109037D01*
X245105Y108763D01*
X244893Y108471D01*
X244707Y108160D01*
X244545Y107828D01*
X244405Y107473D01*
X244286Y107093D01*
X244188Y106689D01*
X244113Y106261D01*
X244059Y105808D01*
X244026Y105332D01*
X244015Y104832D01*
X244022Y104472D01*
X244041Y104123D01*
X244073Y103784D01*
X244118Y103455D01*
X244176Y103136D01*
X244247Y102828D01*
X244330Y102530D01*
X244427Y102242D01*
X244536Y101964D01*
X244659Y101696D01*
X244794Y101438D01*
X244942Y101191D01*
X245102Y100954D01*
X245276Y100727D01*
X245662Y100304D01*
X246095Y99926D01*
X246327Y99756D01*
X246570Y99599D01*
X246824Y99454D01*
X247088Y99322D01*
X247363Y99202D01*
X247648Y99095D01*
X247944Y99001D01*
X248250Y98919D01*
X248568Y98850D01*
X248895Y98793D01*
X249234Y98749D01*
X249583Y98717D01*
X249942Y98698D01*
X250313Y98692D01*
X250795Y98704D01*
G37*
G36*
X254127Y122497D02*
X254453Y122603D01*
X254757Y122734D01*
X255040Y122890D01*
X255302Y123069D01*
X255543Y123273D01*
X255763Y123502D01*
X255962Y123755D01*
X256139Y124030D01*
X256292Y124326D01*
X256421Y124643D01*
X256527Y124981D01*
X256609Y125339D01*
X256668Y125719D01*
X256703Y126119D01*
X256715Y126540D01*
X256698Y127040D01*
X256645Y127513D01*
X256558Y127957D01*
X256435Y128374D01*
X256277Y128762D01*
X256085Y129122D01*
X255857Y129454D01*
X255594Y129758D01*
X255301Y130030D01*
X254982Y130266D01*
X254636Y130466D01*
X254265Y130629D01*
X253868Y130756D01*
X253444Y130846D01*
X252995Y130901D01*
X252520Y130919D01*
X252101Y130902D01*
X251702Y130851D01*
X251323Y130767D01*
X250965Y130649D01*
X250627Y130496D01*
X250309Y130311D01*
X250012Y130091D01*
X249735Y129837D01*
X249484Y129555D01*
X249267Y129250D01*
X249083Y128922D01*
X248933Y128571D01*
X248816Y128196D01*
X248733Y127798D01*
X248683Y127378D01*
X248666Y126934D01*
X248678Y126561D01*
X248715Y126203D01*
X248777Y125861D01*
X248863Y125535D01*
X248974Y125224D01*
X249110Y124929D01*
X249270Y124649D01*
X249454Y124385D01*
X245539Y124622D01*
X245539Y130201D01*
X244199Y130201D01*
X244199Y123185D01*
X250838Y122774D01*
X250838Y124315D01*
X250615Y124591D01*
X250427Y124867D01*
X250273Y125143D01*
X250155Y125419D01*
X250067Y125700D01*
X250004Y125992D01*
X249966Y126296D01*
X249954Y126610D01*
X249965Y126908D01*
X249998Y127191D01*
X250055Y127459D01*
X250133Y127710D01*
X250234Y127946D01*
X250358Y128166D01*
X250503Y128370D01*
X250672Y128559D01*
X250858Y128728D01*
X251059Y128875D01*
X251273Y128999D01*
X251502Y129101D01*
X251744Y129180D01*
X252000Y129236D01*
X252271Y129270D01*
X252555Y129281D01*
X252881Y129270D01*
X253189Y129236D01*
X253479Y129180D01*
X253752Y129102D01*
X254006Y129001D01*
X254242Y128877D01*
X254461Y128731D01*
X254661Y128563D01*
X254841Y128375D01*
X254997Y128169D01*
X255128Y127947D01*
X255236Y127707D01*
X255320Y127450D01*
X255380Y127175D01*
X255416Y126884D01*
X255428Y126575D01*
X255421Y126323D01*
X255399Y126083D01*
X255363Y125855D01*
X255313Y125639D01*
X255249Y125436D01*
X255170Y125245D01*
X255077Y125066D01*
X254970Y124900D01*
X254849Y124745D01*
X254713Y124603D01*
X254562Y124474D01*
X254398Y124356D01*
X254219Y124251D01*
X254026Y124158D01*
X253819Y124077D01*
X253597Y124009D01*
X253781Y122414D01*
X254127Y122497D01*
G37*
G36*
X256540Y146780D02*
X256540Y148514D01*
X244199Y153550D01*
X244199Y151790D01*
X252888Y148392D01*
X255069Y147656D01*
X252888Y146920D01*
X244199Y143504D01*
X244199Y141744D01*
X256540Y146780D01*
G37*
G36*
X1805Y395524D02*
X5650Y395524D01*
X8856Y390400D01*
X10783Y390400D01*
X8771Y393453D01*
X7279Y395716D01*
X7622Y395789D01*
X7946Y395882D01*
X8251Y395998D01*
X8537Y396135D01*
X8693Y396227D01*
X8804Y396293D01*
X9052Y396474D01*
X9281Y396675D01*
X9491Y396899D01*
X9679Y397140D01*
X9841Y397395D01*
X9979Y397663D01*
X10092Y397945D01*
X10179Y398241D01*
X10242Y398551D01*
X10280Y398874D01*
X10292Y399211D01*
X10274Y399616D01*
X10221Y399997D01*
X10133Y400356D01*
X10009Y400692D01*
X9849Y401006D01*
X9654Y401296D01*
X9424Y401563D01*
X9158Y401808D01*
X8860Y402027D01*
X8531Y402216D01*
X8174Y402376D01*
X7786Y402508D01*
X7369Y402610D01*
X6922Y402682D01*
X6445Y402726D01*
X5939Y402741D01*
X132Y402741D01*
X132Y390400D01*
X1805Y390400D01*
X1805Y395524D01*
G37*
%LPC*%
G36*
X1805Y396846D02*
X1805Y401401D01*
X5773Y401401D01*
X6106Y401392D01*
X6420Y401365D01*
X6714Y401321D01*
X6987Y401260D01*
X7240Y401180D01*
X7473Y401083D01*
X7686Y400968D01*
X7879Y400836D01*
X8051Y400687D01*
X8199Y400521D01*
X8325Y400340D01*
X8428Y400143D01*
X8508Y399930D01*
X8565Y399700D01*
X8599Y399455D01*
X8611Y399194D01*
X8599Y398923D01*
X8565Y398668D01*
X8509Y398429D01*
X8430Y398205D01*
X8328Y397996D01*
X8204Y397803D01*
X8057Y397626D01*
X7888Y397464D01*
X7698Y397319D01*
X7489Y397194D01*
X7262Y397087D01*
X7015Y397001D01*
X6750Y396933D01*
X6467Y396885D01*
X6164Y396856D01*
X5843Y396846D01*
X1805Y396846D01*
G37*
%LPD*%
G36*
X20672Y391740D02*
X14235Y391740D01*
X14387Y392050D01*
X14581Y392365D01*
X14816Y392687D01*
X15093Y393014D01*
X15416Y393355D01*
X15791Y393716D01*
X16218Y394097D01*
X16696Y394499D01*
X17537Y395195D01*
X18231Y395793D01*
X18776Y396294D01*
X19174Y396697D01*
X19479Y397052D01*
X19743Y397407D01*
X19967Y397762D01*
X20151Y398116D01*
X20295Y398472D01*
X20397Y398828D01*
X20459Y399185D01*
X20479Y399544D01*
X20464Y399937D01*
X20417Y400308D01*
X20338Y400655D01*
X20229Y400979D01*
X20088Y401280D01*
X19915Y401558D01*
X19712Y401813D01*
X19477Y402044D01*
X19212Y402251D01*
X18921Y402430D01*
X18603Y402581D01*
X18258Y402705D01*
X17886Y402801D01*
X17487Y402870D01*
X17061Y402911D01*
X16608Y402925D01*
X16193Y402911D01*
X15797Y402870D01*
X15421Y402802D01*
X15063Y402706D01*
X14725Y402583D01*
X14407Y402432D01*
X14107Y402254D01*
X13827Y402049D01*
X13571Y401820D01*
X13343Y401573D01*
X13144Y401307D01*
X12972Y401022D01*
X12829Y400718D01*
X12715Y400395D01*
X12628Y400053D01*
X12571Y399693D01*
X14182Y399544D01*
X14219Y399784D01*
X14273Y400011D01*
X14343Y400224D01*
X14431Y400423D01*
X14535Y400608D01*
X14656Y400780D01*
X14794Y400937D01*
X14948Y401081D01*
X15117Y401209D01*
X15297Y401321D01*
X15488Y401415D01*
X15690Y401492D01*
X15903Y401551D01*
X16127Y401594D01*
X16362Y401620D01*
X16608Y401628D01*
X16866Y401620D01*
X17109Y401593D01*
X17338Y401550D01*
X17552Y401488D01*
X17752Y401409D01*
X17937Y401313D01*
X18107Y401199D01*
X18264Y401068D01*
X18403Y400921D01*
X18524Y400759D01*
X18626Y400583D01*
X18710Y400393D01*
X18775Y400189D01*
X18822Y399971D01*
X18850Y399738D01*
X18859Y399491D01*
X18838Y399125D01*
X18773Y398778D01*
X18665Y398450D01*
X18513Y398143D01*
X18327Y397848D01*
X18114Y397560D01*
X17874Y397279D01*
X17607Y397004D01*
X17012Y396461D01*
X16350Y395918D01*
X15650Y395352D01*
X14944Y394740D01*
X14593Y394413D01*
X14251Y394068D01*
X13917Y393704D01*
X13591Y393321D01*
X13281Y392914D01*
X12996Y392477D01*
X12736Y392010D01*
X12500Y391512D01*
X12500Y390400D01*
X20672Y390400D01*
X20672Y391740D01*
G37*
G36*
X20320Y362485D02*
X15196Y362485D01*
X15196Y366330D01*
X20320Y369536D01*
X20320Y371463D01*
X17267Y369451D01*
X15004Y367959D01*
X14931Y368302D01*
X14838Y368626D01*
X14722Y368931D01*
X14585Y369217D01*
X14493Y369373D01*
X14427Y369484D01*
X14247Y369732D01*
X14045Y369961D01*
X13821Y370171D01*
X13580Y370359D01*
X13325Y370521D01*
X13057Y370659D01*
X12775Y370772D01*
X12479Y370859D01*
X12169Y370922D01*
X11846Y370960D01*
X11509Y370972D01*
X11104Y370954D01*
X10723Y370901D01*
X10364Y370813D01*
X10028Y370689D01*
X9714Y370529D01*
X9424Y370334D01*
X9157Y370104D01*
X8912Y369838D01*
X8693Y369540D01*
X8504Y369211D01*
X8344Y368854D01*
X8212Y368466D01*
X8110Y368049D01*
X8038Y367602D01*
X7994Y367125D01*
X7979Y366619D01*
X7979Y360812D01*
X20320Y360812D01*
X20320Y362485D01*
G37*
%LPC*%
G36*
X9319Y362485D02*
X9319Y366453D01*
X9328Y366786D01*
X9355Y367100D01*
X9399Y367394D01*
X9461Y367667D01*
X9540Y367920D01*
X9637Y368153D01*
X9752Y368366D01*
X9884Y368559D01*
X10033Y368731D01*
X10199Y368879D01*
X10380Y369005D01*
X10577Y369108D01*
X10791Y369188D01*
X11020Y369245D01*
X11265Y369279D01*
X11526Y369291D01*
X11797Y369279D01*
X12052Y369245D01*
X12291Y369189D01*
X12515Y369110D01*
X12724Y369008D01*
X12917Y368884D01*
X13094Y368737D01*
X13256Y368568D01*
X13401Y368378D01*
X13526Y368169D01*
X13633Y367942D01*
X13719Y367695D01*
X13787Y367430D01*
X13835Y367147D01*
X13864Y366844D01*
X13874Y366523D01*
X13874Y362485D01*
X9319Y362485D01*
G37*
%LPD*%
G36*
X17551Y373028D02*
X17926Y373123D01*
X18277Y373247D01*
X18602Y373398D01*
X18902Y373578D01*
X19177Y373787D01*
X19426Y374023D01*
X19650Y374288D01*
X19848Y374579D01*
X20020Y374894D01*
X20165Y375232D01*
X20284Y375595D01*
X20376Y375980D01*
X20442Y376390D01*
X20482Y376823D01*
X20495Y377279D01*
X20481Y377769D01*
X20437Y378229D01*
X20363Y378660D01*
X20261Y379062D01*
X20129Y379435D01*
X19968Y379779D01*
X19778Y380094D01*
X19558Y380380D01*
X19312Y380635D01*
X19041Y380855D01*
X18747Y381042D01*
X18428Y381195D01*
X18086Y381313D01*
X17719Y381398D01*
X17328Y381449D01*
X16913Y381466D01*
X16624Y381454D01*
X16347Y381418D01*
X16083Y381358D01*
X15831Y381273D01*
X15592Y381165D01*
X15366Y381032D01*
X15152Y380876D01*
X14951Y380695D01*
X14766Y380493D01*
X14601Y380272D01*
X14455Y380031D01*
X14329Y379771D01*
X14223Y379492D01*
X14136Y379194D01*
X14070Y378877D01*
X14023Y378541D01*
X13988Y378541D01*
X13914Y378847D01*
X13826Y379134D01*
X13723Y379402D01*
X13606Y379652D01*
X13473Y379883D01*
X13325Y380095D01*
X13162Y380288D01*
X12985Y380463D01*
X12793Y380618D01*
X12587Y380752D01*
X12367Y380866D01*
X12134Y380959D01*
X11887Y381031D01*
X11626Y381083D01*
X11351Y381114D01*
X11062Y381124D01*
X10687Y381108D01*
X10334Y381060D01*
X10002Y380980D01*
X9690Y380867D01*
X9401Y380722D01*
X9132Y380546D01*
X8884Y380337D01*
X8658Y380095D01*
X8456Y379825D01*
X8281Y379529D01*
X8132Y379207D01*
X8011Y378859D01*
X7917Y378486D01*
X7849Y378086D01*
X7809Y377661D01*
X7795Y377209D01*
X7809Y376794D01*
X7848Y376398D01*
X7915Y376022D01*
X8008Y375665D01*
X8127Y375327D01*
X8273Y375008D01*
X8446Y374709D01*
X8645Y374429D01*
X8868Y374172D01*
X9111Y373944D01*
X9376Y373745D01*
X9661Y373573D01*
X9967Y373431D01*
X10294Y373316D01*
X10641Y373230D01*
X11010Y373172D01*
X11132Y374757D01*
X10896Y374792D01*
X10674Y374843D01*
X10465Y374912D01*
X10270Y374997D01*
X10088Y375099D01*
X9920Y375218D01*
X9766Y375353D01*
X9626Y375506D01*
X9501Y375673D01*
X9392Y375853D01*
X9300Y376045D01*
X9225Y376249D01*
X9167Y376466D01*
X9125Y376696D01*
X9100Y376938D01*
X9092Y377192D01*
X9101Y377470D01*
X9127Y377730D01*
X9172Y377973D01*
X9235Y378198D01*
X9316Y378405D01*
X9414Y378595D01*
X9531Y378767D01*
X9665Y378922D01*
X9815Y379058D01*
X9978Y379176D01*
X10154Y379277D01*
X10343Y379359D01*
X10545Y379422D01*
X10760Y379468D01*
X10988Y379495D01*
X11229Y379504D01*
X11472Y379493D01*
X11701Y379459D01*
X11917Y379404D01*
X12119Y379326D01*
X12307Y379225D01*
X12483Y379103D01*
X12644Y378958D01*
X12792Y378790D01*
X12924Y378603D01*
X13039Y378397D01*
X13136Y378173D01*
X13216Y377931D01*
X13278Y377670D01*
X13322Y377392D01*
X13348Y377095D01*
X13357Y376780D01*
X13357Y375922D01*
X14723Y375922D01*
X14723Y376815D01*
X14732Y377170D01*
X14759Y377504D01*
X14803Y377816D01*
X14865Y378106D01*
X14944Y378375D01*
X15041Y378623D01*
X15156Y378849D01*
X15288Y379053D01*
X15436Y379235D01*
X15598Y379392D01*
X15774Y379525D01*
X15964Y379634D01*
X16167Y379719D01*
X16384Y379780D01*
X16616Y379816D01*
X16860Y379828D01*
X17141Y379818D01*
X17403Y379786D01*
X17647Y379733D01*
X17874Y379658D01*
X18083Y379563D01*
X18274Y379446D01*
X18448Y379308D01*
X18603Y379149D01*
X18741Y378972D01*
X18860Y378778D01*
X18961Y378568D01*
X19043Y378343D01*
X19108Y378101D01*
X19154Y377843D01*
X19181Y377569D01*
X19190Y377279D01*
X19182Y376991D01*
X19156Y376718D01*
X19113Y376462D01*
X19053Y376221D01*
X18976Y375997D01*
X18882Y375789D01*
X18771Y375597D01*
X18643Y375420D01*
X18497Y375260D01*
X18335Y375116D01*
X18155Y374989D01*
X17959Y374877D01*
X17745Y374781D01*
X17514Y374702D01*
X17266Y374638D01*
X17001Y374591D01*
X17149Y372961D01*
X17551Y373028D01*
G37*
G36*
X45720Y276125D02*
X40596Y276125D01*
X40596Y279970D01*
X45720Y283176D01*
X45720Y285103D01*
X42667Y283091D01*
X40404Y281599D01*
X40331Y281942D01*
X40238Y282266D01*
X40122Y282571D01*
X39985Y282857D01*
X39893Y283013D01*
X39827Y283124D01*
X39647Y283372D01*
X39445Y283601D01*
X39221Y283811D01*
X38980Y283999D01*
X38725Y284161D01*
X38457Y284299D01*
X38175Y284412D01*
X37879Y284499D01*
X37569Y284562D01*
X37246Y284600D01*
X36909Y284612D01*
X36504Y284594D01*
X36123Y284541D01*
X35764Y284453D01*
X35428Y284329D01*
X35114Y284169D01*
X34824Y283974D01*
X34557Y283744D01*
X34312Y283478D01*
X34093Y283180D01*
X33904Y282851D01*
X33744Y282494D01*
X33612Y282106D01*
X33510Y281689D01*
X33438Y281242D01*
X33394Y280765D01*
X33379Y280259D01*
X33379Y274452D01*
X45720Y274452D01*
X45720Y276125D01*
G37*
%LPC*%
G36*
X34719Y276125D02*
X34719Y280093D01*
X34728Y280426D01*
X34755Y280740D01*
X34799Y281034D01*
X34861Y281307D01*
X34940Y281560D01*
X35037Y281793D01*
X35152Y282006D01*
X35284Y282199D01*
X35433Y282371D01*
X35599Y282519D01*
X35780Y282645D01*
X35977Y282748D01*
X36191Y282828D01*
X36420Y282885D01*
X36665Y282919D01*
X36926Y282931D01*
X37197Y282919D01*
X37452Y282885D01*
X37691Y282829D01*
X37915Y282750D01*
X38124Y282648D01*
X38317Y282524D01*
X38494Y282377D01*
X38656Y282208D01*
X38801Y282018D01*
X38926Y281809D01*
X39033Y281582D01*
X39119Y281335D01*
X39187Y281070D01*
X39235Y280787D01*
X39264Y280484D01*
X39274Y280163D01*
X39274Y276125D01*
X34719Y276125D01*
G37*
%LPD*%
G36*
X42926Y292146D02*
X45720Y292146D01*
X45720Y293635D01*
X42926Y293635D01*
X42926Y295369D01*
X41682Y295369D01*
X41682Y293635D01*
X33379Y293635D01*
X33379Y291979D01*
X41700Y286330D01*
X42926Y286330D01*
X42926Y292146D01*
G37*
%LPC*%
G36*
X41507Y287924D02*
X40859Y288397D01*
X36199Y291559D01*
X35621Y291900D01*
X35157Y292146D01*
X41682Y292146D01*
X41682Y287784D01*
X41507Y287924D01*
G37*
%LPD*%
G36*
X108554Y315004D02*
X112399Y315004D01*
X115605Y309880D01*
X117532Y309880D01*
X115520Y312933D01*
X114028Y315196D01*
X114371Y315269D01*
X114695Y315362D01*
X115000Y315478D01*
X115286Y315615D01*
X115442Y315707D01*
X115553Y315773D01*
X115801Y315954D01*
X116030Y316155D01*
X116240Y316379D01*
X116428Y316620D01*
X116591Y316875D01*
X116728Y317143D01*
X116841Y317425D01*
X116929Y317721D01*
X116991Y318031D01*
X117029Y318354D01*
X117041Y318691D01*
X117024Y319096D01*
X116970Y319477D01*
X116882Y319836D01*
X116758Y320172D01*
X116598Y320486D01*
X116403Y320776D01*
X116173Y321043D01*
X115907Y321288D01*
X115609Y321507D01*
X115281Y321696D01*
X114923Y321856D01*
X114535Y321988D01*
X114118Y322090D01*
X113671Y322162D01*
X113195Y322206D01*
X112688Y322221D01*
X106881Y322221D01*
X106881Y309880D01*
X108554Y309880D01*
X108554Y315004D01*
G37*
%LPC*%
G36*
X108554Y316326D02*
X108554Y320881D01*
X112522Y320881D01*
X112856Y320872D01*
X113169Y320845D01*
X113463Y320801D01*
X113736Y320740D01*
X113989Y320660D01*
X114222Y320563D01*
X114435Y320448D01*
X114628Y320316D01*
X114800Y320167D01*
X114948Y320001D01*
X115074Y319820D01*
X115177Y319623D01*
X115257Y319410D01*
X115314Y319180D01*
X115348Y318935D01*
X115360Y318674D01*
X115348Y318403D01*
X115315Y318148D01*
X115258Y317909D01*
X115179Y317685D01*
X115077Y317476D01*
X114953Y317283D01*
X114806Y317106D01*
X114637Y316944D01*
X114447Y316799D01*
X114238Y316674D01*
X114011Y316567D01*
X113765Y316481D01*
X113500Y316413D01*
X113216Y316365D01*
X112913Y316336D01*
X112592Y316326D01*
X108554Y316326D01*
G37*
%LPD*%
G36*
X123692Y309722D02*
X124164Y309775D01*
X124608Y309863D01*
X125025Y309985D01*
X125413Y310143D01*
X125773Y310335D01*
X126106Y310563D01*
X126410Y310826D01*
X126682Y311119D01*
X126917Y311438D01*
X127117Y311784D01*
X127280Y312155D01*
X127407Y312552D01*
X127498Y312976D01*
X127552Y313425D01*
X127570Y313900D01*
X127553Y314319D01*
X127503Y314718D01*
X127418Y315097D01*
X127300Y315455D01*
X127148Y315793D01*
X126962Y316111D01*
X126742Y316408D01*
X126489Y316685D01*
X126207Y316936D01*
X125901Y317153D01*
X125573Y317337D01*
X125222Y317487D01*
X124847Y317604D01*
X124450Y317687D01*
X124029Y317737D01*
X123585Y317754D01*
X123212Y317742D01*
X122854Y317705D01*
X122512Y317643D01*
X122186Y317557D01*
X121875Y317446D01*
X121580Y317311D01*
X121300Y317150D01*
X121036Y316966D01*
X121273Y320881D01*
X126852Y320881D01*
X126852Y322221D01*
X119836Y322221D01*
X119425Y315582D01*
X120966Y315582D01*
X121242Y315805D01*
X121518Y315993D01*
X121794Y316147D01*
X122070Y316265D01*
X122351Y316353D01*
X122644Y316416D01*
X122947Y316454D01*
X123261Y316466D01*
X123560Y316455D01*
X123843Y316422D01*
X124110Y316365D01*
X124361Y316287D01*
X124597Y316186D01*
X124817Y316062D01*
X125021Y315917D01*
X125210Y315748D01*
X125379Y315562D01*
X125526Y315361D01*
X125650Y315147D01*
X125752Y314918D01*
X125831Y314676D01*
X125887Y314420D01*
X125921Y314149D01*
X125932Y313865D01*
X125921Y313539D01*
X125888Y313231D01*
X125831Y312941D01*
X125753Y312669D01*
X125652Y312414D01*
X125528Y312178D01*
X125383Y311959D01*
X125214Y311759D01*
X125026Y311579D01*
X124821Y311423D01*
X124598Y311292D01*
X124358Y311184D01*
X124101Y311100D01*
X123827Y311040D01*
X123535Y311004D01*
X123226Y310992D01*
X122974Y310999D01*
X122734Y311021D01*
X122506Y311057D01*
X122290Y311107D01*
X122087Y311171D01*
X121896Y311250D01*
X121717Y311343D01*
X121551Y311450D01*
X121397Y311572D01*
X121255Y311707D01*
X121125Y311858D01*
X121007Y312022D01*
X120902Y312201D01*
X120809Y312394D01*
X120728Y312601D01*
X120660Y312823D01*
X119066Y312639D01*
X119148Y312293D01*
X119255Y311967D01*
X119386Y311663D01*
X119541Y311380D01*
X119721Y311118D01*
X119925Y310877D01*
X120153Y310657D01*
X120406Y310458D01*
X120681Y310282D01*
X120977Y310129D01*
X121294Y309999D01*
X121632Y309893D01*
X121991Y309811D01*
X122370Y309752D01*
X122770Y309717D01*
X123191Y309705D01*
X123692Y309722D01*
G37*
G36*
X38704Y266744D02*
X42549Y266744D01*
X45755Y261620D01*
X47682Y261620D01*
X45670Y264673D01*
X44178Y266936D01*
X44521Y267009D01*
X44845Y267102D01*
X45150Y267218D01*
X45436Y267355D01*
X45592Y267447D01*
X45703Y267513D01*
X45951Y267694D01*
X46180Y267895D01*
X46390Y268119D01*
X46578Y268360D01*
X46741Y268615D01*
X46878Y268883D01*
X46991Y269165D01*
X47079Y269461D01*
X47141Y269771D01*
X47179Y270094D01*
X47191Y270431D01*
X47174Y270836D01*
X47120Y271217D01*
X47032Y271576D01*
X46908Y271912D01*
X46748Y272226D01*
X46553Y272516D01*
X46323Y272783D01*
X46057Y273028D01*
X45759Y273247D01*
X45431Y273436D01*
X45073Y273596D01*
X44685Y273728D01*
X44268Y273830D01*
X43821Y273902D01*
X43345Y273946D01*
X42838Y273961D01*
X37031Y273961D01*
X37031Y261620D01*
X38704Y261620D01*
X38704Y266744D01*
G37*
%LPC*%
G36*
X38704Y268066D02*
X38704Y272621D01*
X42672Y272621D01*
X43006Y272612D01*
X43319Y272585D01*
X43613Y272541D01*
X43886Y272480D01*
X44139Y272400D01*
X44372Y272303D01*
X44585Y272188D01*
X44778Y272056D01*
X44950Y271907D01*
X45098Y271741D01*
X45224Y271560D01*
X45327Y271363D01*
X45407Y271150D01*
X45464Y270920D01*
X45498Y270675D01*
X45510Y270414D01*
X45498Y270143D01*
X45465Y269888D01*
X45408Y269649D01*
X45329Y269425D01*
X45227Y269216D01*
X45103Y269023D01*
X44956Y268846D01*
X44787Y268684D01*
X44597Y268539D01*
X44388Y268414D01*
X44161Y268307D01*
X43915Y268221D01*
X43650Y268153D01*
X43366Y268105D01*
X43063Y268076D01*
X42742Y268066D01*
X38704Y268066D01*
G37*
%LPD*%
G36*
X54154Y261463D02*
X54582Y261515D01*
X54986Y261604D01*
X55364Y261727D01*
X55717Y261886D01*
X56045Y262080D01*
X56348Y262310D01*
X56625Y262575D01*
X56874Y262870D01*
X57089Y263191D01*
X57271Y263538D01*
X57420Y263910D01*
X57536Y264309D01*
X57619Y264733D01*
X57669Y265182D01*
X57685Y265658D01*
X57670Y266097D01*
X57623Y266514D01*
X57544Y266907D01*
X57435Y267278D01*
X57293Y267626D01*
X57121Y267950D01*
X56917Y268252D01*
X56682Y268530D01*
X56421Y268781D01*
X56137Y268998D01*
X55831Y269182D01*
X55503Y269332D01*
X55153Y269449D01*
X54781Y269532D01*
X54388Y269582D01*
X53972Y269599D01*
X53723Y269593D01*
X53482Y269573D01*
X53248Y269541D01*
X53021Y269495D01*
X52589Y269365D01*
X52185Y269183D01*
X51817Y268951D01*
X51493Y268672D01*
X51213Y268345D01*
X50976Y267970D01*
X50988Y268548D01*
X51022Y269091D01*
X51080Y269598D01*
X51161Y270071D01*
X51265Y270508D01*
X51392Y270910D01*
X51543Y271277D01*
X51716Y271609D01*
X51911Y271904D01*
X52124Y272159D01*
X52357Y272375D01*
X52609Y272552D01*
X52879Y272689D01*
X53169Y272787D01*
X53477Y272846D01*
X53805Y272866D01*
X54180Y272842D01*
X54520Y272772D01*
X54826Y272654D01*
X55097Y272489D01*
X55334Y272278D01*
X55536Y272019D01*
X55704Y271713D01*
X55837Y271360D01*
X57344Y271631D01*
X57245Y271935D01*
X57130Y272220D01*
X56998Y272485D01*
X56851Y272731D01*
X56687Y272957D01*
X56508Y273163D01*
X56312Y273349D01*
X56100Y273516D01*
X55872Y273664D01*
X55628Y273791D01*
X55367Y273899D01*
X55090Y273988D01*
X54798Y274056D01*
X54489Y274105D01*
X54164Y274135D01*
X53823Y274145D01*
X53562Y274138D01*
X53308Y274118D01*
X53062Y274084D01*
X52824Y274037D01*
X52593Y273977D01*
X52370Y273903D01*
X51946Y273716D01*
X51553Y273474D01*
X51190Y273179D01*
X50858Y272830D01*
X50556Y272428D01*
X50287Y271976D01*
X50054Y271477D01*
X49857Y270931D01*
X49695Y270339D01*
X49570Y269701D01*
X49480Y269015D01*
X49426Y268284D01*
X49408Y267506D01*
X49426Y266788D01*
X49477Y266114D01*
X49564Y265484D01*
X49684Y264898D01*
X49839Y264356D01*
X50029Y263858D01*
X50253Y263405D01*
X50512Y262995D01*
X50803Y262632D01*
X51125Y262317D01*
X51478Y262050D01*
X51861Y261832D01*
X52275Y261663D01*
X52719Y261542D01*
X53194Y261469D01*
X53443Y261451D01*
X53700Y261445D01*
X54154Y261463D01*
G37*
%LPC*%
G36*
X53378Y262729D02*
X53121Y262772D01*
X52876Y262843D01*
X52644Y262943D01*
X52424Y263071D01*
X52216Y263227D01*
X52021Y263412D01*
X51839Y263626D01*
X51674Y263862D01*
X51530Y264113D01*
X51409Y264382D01*
X51310Y264666D01*
X51233Y264966D01*
X51178Y265283D01*
X51145Y265615D01*
X51134Y265964D01*
X51144Y266239D01*
X51176Y266499D01*
X51229Y266743D01*
X51304Y266973D01*
X51399Y267187D01*
X51516Y267386D01*
X51654Y267569D01*
X51813Y267738D01*
X51989Y267889D01*
X52179Y268019D01*
X52381Y268130D01*
X52598Y268221D01*
X52827Y268291D01*
X53070Y268341D01*
X53326Y268372D01*
X53595Y268382D01*
X53880Y268370D01*
X54149Y268336D01*
X54403Y268279D01*
X54639Y268200D01*
X54860Y268098D01*
X55065Y267973D01*
X55253Y267825D01*
X55426Y267655D01*
X55579Y267463D01*
X55713Y267253D01*
X55826Y267023D01*
X55918Y266774D01*
X55990Y266506D01*
X56041Y266219D01*
X56072Y265913D01*
X56082Y265588D01*
X56072Y265262D01*
X56042Y264953D01*
X55991Y264663D01*
X55920Y264391D01*
X55829Y264137D01*
X55718Y263900D01*
X55586Y263682D01*
X55434Y263481D01*
X55265Y263302D01*
X55080Y263146D01*
X54879Y263014D01*
X54664Y262906D01*
X54433Y262823D01*
X54186Y262763D01*
X53925Y262727D01*
X53648Y262715D01*
X53378Y262729D01*
G37*
%LPD*%
G36*
X195580Y358675D02*
X190456Y358675D01*
X190456Y362520D01*
X195580Y365726D01*
X195580Y367653D01*
X192527Y365641D01*
X190264Y364149D01*
X190191Y364492D01*
X190098Y364816D01*
X189982Y365121D01*
X189845Y365407D01*
X189753Y365563D01*
X189687Y365674D01*
X189507Y365922D01*
X189305Y366151D01*
X189081Y366361D01*
X188840Y366549D01*
X188585Y366711D01*
X188317Y366849D01*
X188035Y366962D01*
X187739Y367049D01*
X187429Y367112D01*
X187106Y367150D01*
X186769Y367162D01*
X186364Y367144D01*
X185983Y367091D01*
X185624Y367003D01*
X185288Y366879D01*
X184974Y366719D01*
X184684Y366524D01*
X184417Y366294D01*
X184172Y366028D01*
X183953Y365730D01*
X183764Y365401D01*
X183604Y365044D01*
X183472Y364656D01*
X183370Y364239D01*
X183298Y363792D01*
X183254Y363315D01*
X183239Y362809D01*
X183239Y357002D01*
X195580Y357002D01*
X195580Y358675D01*
G37*
%LPC*%
G36*
X184579Y358675D02*
X184579Y362643D01*
X184588Y362976D01*
X184615Y363290D01*
X184659Y363584D01*
X184721Y363857D01*
X184800Y364110D01*
X184897Y364343D01*
X185012Y364556D01*
X185144Y364749D01*
X185293Y364921D01*
X185459Y365069D01*
X185640Y365195D01*
X185837Y365298D01*
X186051Y365378D01*
X186280Y365435D01*
X186525Y365469D01*
X186786Y365481D01*
X187057Y365469D01*
X187312Y365435D01*
X187551Y365379D01*
X187775Y365300D01*
X187984Y365198D01*
X188177Y365074D01*
X188354Y364927D01*
X188516Y364758D01*
X188661Y364568D01*
X188786Y364359D01*
X188893Y364132D01*
X188979Y363885D01*
X189047Y363620D01*
X189095Y363337D01*
X189124Y363034D01*
X189134Y362713D01*
X189134Y358675D01*
X184579Y358675D01*
G37*
%LPD*%
G36*
X184579Y376018D02*
X185419Y375452D01*
X186233Y374929D01*
X187023Y374447D01*
X187788Y374007D01*
X188529Y373609D01*
X189244Y373253D01*
X189935Y372940D01*
X190601Y372668D01*
X191251Y372433D01*
X191892Y372229D01*
X192527Y372057D01*
X193153Y371916D01*
X193771Y371806D01*
X194382Y371728D01*
X194985Y371681D01*
X195580Y371665D01*
X195580Y373312D01*
X195155Y373318D01*
X194733Y373336D01*
X193901Y373409D01*
X193082Y373531D01*
X192278Y373702D01*
X191478Y373921D01*
X190673Y374189D01*
X189862Y374505D01*
X189046Y374871D01*
X188149Y375330D01*
X187095Y375928D01*
X185885Y376666D01*
X184518Y377542D01*
X183239Y377542D01*
X183239Y369388D01*
X184579Y369388D01*
X184579Y376018D01*
G37*
G36*
X161290Y14653D02*
X156482Y14653D01*
X156482Y18279D01*
X156465Y18757D01*
X156417Y19209D01*
X156336Y19635D01*
X156223Y20036D01*
X156078Y20412D01*
X155900Y20761D01*
X155690Y21085D01*
X155448Y21384D01*
X155178Y21652D01*
X154886Y21884D01*
X154572Y22081D01*
X154235Y22241D01*
X153876Y22366D01*
X153494Y22456D01*
X153090Y22509D01*
X152663Y22527D01*
X152233Y22509D01*
X151828Y22456D01*
X151448Y22367D01*
X151093Y22242D01*
X150763Y22082D01*
X150457Y21887D01*
X150177Y21655D01*
X149921Y21388D01*
X149694Y21089D01*
X149496Y20761D01*
X149329Y20403D01*
X149192Y20015D01*
X149086Y19599D01*
X149010Y19153D01*
X148964Y18678D01*
X148949Y18174D01*
X148949Y12980D01*
X161290Y12980D01*
X161290Y14653D01*
G37*
%LPC*%
G36*
X150289Y14653D02*
X150289Y17973D01*
X150299Y18320D01*
X150327Y18646D01*
X150373Y18949D01*
X150439Y19229D01*
X150523Y19488D01*
X150626Y19723D01*
X150747Y19936D01*
X150887Y20127D01*
X151046Y20295D01*
X151223Y20441D01*
X151419Y20565D01*
X151634Y20666D01*
X151868Y20744D01*
X152120Y20800D01*
X152391Y20834D01*
X152680Y20845D01*
X152981Y20834D01*
X153261Y20802D01*
X153523Y20747D01*
X153765Y20670D01*
X153987Y20572D01*
X154191Y20451D01*
X154375Y20309D01*
X154539Y20145D01*
X154685Y19959D01*
X154810Y19751D01*
X154917Y19521D01*
X155004Y19269D01*
X155072Y18995D01*
X155120Y18700D01*
X155149Y18382D01*
X155159Y18043D01*
X155159Y14653D01*
X150289Y14653D01*
G37*
%LPD*%
G36*
X161290Y32546D02*
X159950Y32546D01*
X159950Y29542D01*
X148949Y29542D01*
X148949Y28088D01*
X150955Y25172D01*
X152444Y25172D01*
X150456Y27957D01*
X159950Y27957D01*
X159950Y24813D01*
X161290Y24813D01*
X161290Y32546D01*
G37*
G36*
X158617Y2904D02*
X158984Y3007D01*
X159326Y3130D01*
X159642Y3273D01*
X159933Y3436D01*
X160199Y3619D01*
X160440Y3822D01*
X160655Y4044D01*
X160845Y4287D01*
X161009Y4549D01*
X161149Y4832D01*
X161263Y5134D01*
X161351Y5456D01*
X161415Y5799D01*
X161453Y6161D01*
X161465Y6543D01*
X161449Y6954D01*
X161401Y7343D01*
X161320Y7709D01*
X161208Y8054D01*
X161063Y8375D01*
X160886Y8674D01*
X160677Y8951D01*
X160436Y9205D01*
X160167Y9433D01*
X159874Y9631D01*
X159556Y9798D01*
X159215Y9934D01*
X158850Y10041D01*
X158461Y10117D01*
X158048Y10162D01*
X157611Y10177D01*
X148949Y10177D01*
X148949Y6140D01*
X150316Y6140D01*
X150316Y8513D01*
X157646Y8513D01*
X157940Y8505D01*
X158214Y8480D01*
X158471Y8439D01*
X158710Y8382D01*
X158930Y8308D01*
X159132Y8218D01*
X159316Y8111D01*
X159481Y7988D01*
X159628Y7850D01*
X159755Y7701D01*
X159863Y7539D01*
X159951Y7366D01*
X160020Y7180D01*
X160068Y6983D01*
X160098Y6773D01*
X160108Y6551D01*
X160099Y6348D01*
X160072Y6153D01*
X160028Y5967D01*
X159965Y5789D01*
X159885Y5621D01*
X159787Y5461D01*
X159672Y5310D01*
X159538Y5168D01*
X159389Y5036D01*
X159226Y4916D01*
X159049Y4809D01*
X158857Y4714D01*
X158652Y4632D01*
X158433Y4562D01*
X158200Y4504D01*
X157953Y4458D01*
X158225Y2820D01*
X158617Y2904D01*
G37*
G36*
X121711Y117308D02*
X125337Y117308D01*
X125815Y117325D01*
X126267Y117373D01*
X126693Y117454D01*
X127094Y117567D01*
X127469Y117712D01*
X127819Y117890D01*
X128143Y118100D01*
X128442Y118342D01*
X128710Y118612D01*
X128942Y118904D01*
X129138Y119218D01*
X129299Y119555D01*
X129424Y119914D01*
X129513Y120296D01*
X129567Y120700D01*
X129585Y121127D01*
X129567Y121557D01*
X129514Y121962D01*
X129425Y122342D01*
X129300Y122697D01*
X129140Y123027D01*
X128944Y123333D01*
X128713Y123613D01*
X128446Y123869D01*
X128147Y124096D01*
X127818Y124294D01*
X127460Y124461D01*
X127073Y124598D01*
X126657Y124704D01*
X126211Y124780D01*
X125736Y124826D01*
X125232Y124841D01*
X120038Y124841D01*
X120038Y112500D01*
X121711Y112500D01*
X121711Y117308D01*
G37*
%LPC*%
G36*
X121711Y118631D02*
X121711Y123501D01*
X125030Y123501D01*
X125378Y123491D01*
X125704Y123463D01*
X126007Y123417D01*
X126287Y123351D01*
X126545Y123267D01*
X126781Y123164D01*
X126994Y123043D01*
X127185Y122903D01*
X127353Y122744D01*
X127499Y122567D01*
X127623Y122371D01*
X127724Y122156D01*
X127802Y121922D01*
X127858Y121670D01*
X127892Y121399D01*
X127903Y121110D01*
X127892Y120809D01*
X127859Y120529D01*
X127805Y120267D01*
X127728Y120025D01*
X127629Y119803D01*
X127509Y119599D01*
X127367Y119415D01*
X127202Y119251D01*
X127016Y119105D01*
X126808Y118980D01*
X126578Y118873D01*
X126327Y118786D01*
X126053Y118718D01*
X125757Y118670D01*
X125440Y118641D01*
X125100Y118631D01*
X121711Y118631D01*
G37*
%LPD*%
G36*
X105854Y113866D02*
X97805Y113866D01*
X97805Y118167D01*
X104969Y118167D01*
X104969Y119516D01*
X97805Y119516D01*
X97805Y123474D01*
X105495Y123474D01*
X105495Y124841D01*
X96132Y124841D01*
X96132Y112500D01*
X105854Y112500D01*
X105854Y113866D01*
G37*
G36*
X167666Y113866D02*
X159617Y113866D01*
X159617Y118167D01*
X166782Y118167D01*
X166782Y119516D01*
X159617Y119516D01*
X159617Y123474D01*
X167307Y123474D01*
X167307Y124841D01*
X157944Y124841D01*
X157944Y112500D01*
X167666Y112500D01*
X167666Y113866D01*
G37*
G36*
X113231Y112340D02*
X113786Y112383D01*
X114307Y112457D01*
X114795Y112559D01*
X115248Y112691D01*
X115667Y112852D01*
X116052Y113042D01*
X116403Y113262D01*
X116716Y113508D01*
X116987Y113779D01*
X117217Y114073D01*
X117405Y114392D01*
X117551Y114735D01*
X117655Y115101D01*
X117718Y115492D01*
X117739Y115907D01*
X117727Y116233D01*
X117692Y116538D01*
X117633Y116820D01*
X117550Y117081D01*
X117447Y117322D01*
X117326Y117547D01*
X117187Y117756D01*
X117029Y117948D01*
X116855Y118125D01*
X116667Y118287D01*
X116463Y118436D01*
X116245Y118570D01*
X115778Y118807D01*
X115277Y119012D01*
X114749Y119187D01*
X114196Y119336D01*
X113062Y119603D01*
X112283Y119784D01*
X111645Y119950D01*
X111148Y120102D01*
X110793Y120238D01*
X110525Y120374D01*
X110291Y120525D01*
X110089Y120690D01*
X109922Y120869D01*
X109789Y121067D01*
X109695Y121290D01*
X109638Y121538D01*
X109619Y121810D01*
X109632Y122046D01*
X109668Y122266D01*
X109729Y122472D01*
X109814Y122662D01*
X109924Y122837D01*
X110058Y122998D01*
X110216Y123143D01*
X110399Y123273D01*
X110605Y123388D01*
X110833Y123488D01*
X111082Y123572D01*
X111354Y123641D01*
X111647Y123695D01*
X111962Y123733D01*
X112300Y123756D01*
X112659Y123763D01*
X112987Y123757D01*
X113296Y123736D01*
X113588Y123701D01*
X113861Y123653D01*
X114115Y123591D01*
X114352Y123515D01*
X114570Y123425D01*
X114770Y123321D01*
X114952Y123202D01*
X115120Y123066D01*
X115272Y122914D01*
X115409Y122744D01*
X115530Y122558D01*
X115637Y122355D01*
X115727Y122135D01*
X115803Y121898D01*
X117450Y122187D01*
X117328Y122560D01*
X117185Y122905D01*
X117021Y123222D01*
X116837Y123511D01*
X116631Y123771D01*
X116405Y124002D01*
X116158Y124206D01*
X115891Y124381D01*
X115597Y124532D01*
X115273Y124663D01*
X114917Y124773D01*
X114531Y124864D01*
X114114Y124934D01*
X113665Y124984D01*
X113186Y125015D01*
X112676Y125025D01*
X112128Y125011D01*
X111612Y124971D01*
X111129Y124904D01*
X110678Y124810D01*
X110260Y124689D01*
X109875Y124542D01*
X109523Y124368D01*
X109203Y124166D01*
X108919Y123940D01*
X108673Y123692D01*
X108464Y123420D01*
X108294Y123126D01*
X108161Y122809D01*
X108066Y122470D01*
X108009Y122108D01*
X107990Y121723D01*
X108005Y121387D01*
X108048Y121070D01*
X108121Y120774D01*
X108222Y120497D01*
X108351Y120238D01*
X108506Y119996D01*
X108686Y119772D01*
X108893Y119564D01*
X109131Y119369D01*
X109410Y119184D01*
X109729Y119008D01*
X110088Y118841D01*
X110511Y118679D01*
X111022Y118517D01*
X111621Y118355D01*
X112308Y118193D01*
X113841Y117834D01*
X114175Y117746D01*
X114485Y117648D01*
X114771Y117540D01*
X115032Y117422D01*
X115268Y117291D01*
X115476Y117144D01*
X115655Y116981D01*
X115807Y116800D01*
X115928Y116598D01*
X116014Y116367D01*
X116066Y116107D01*
X116083Y115819D01*
X116070Y115558D01*
X116028Y115313D01*
X115960Y115085D01*
X115863Y114872D01*
X115739Y114676D01*
X115588Y114497D01*
X115409Y114333D01*
X115203Y114186D01*
X114971Y114056D01*
X114717Y113943D01*
X114439Y113847D01*
X114138Y113769D01*
X113814Y113708D01*
X113466Y113665D01*
X113096Y113639D01*
X112702Y113630D01*
X112321Y113638D01*
X111960Y113662D01*
X111619Y113703D01*
X111299Y113760D01*
X110999Y113833D01*
X110720Y113923D01*
X110462Y114029D01*
X110224Y114151D01*
X110006Y114291D01*
X109808Y114449D01*
X109629Y114625D01*
X109471Y114820D01*
X109332Y115033D01*
X109212Y115265D01*
X109113Y115516D01*
X109033Y115784D01*
X107412Y115460D01*
X107517Y115081D01*
X107651Y114725D01*
X107815Y114395D01*
X108008Y114089D01*
X108232Y113807D01*
X108484Y113550D01*
X108767Y113317D01*
X109079Y113109D01*
X109420Y112925D01*
X109792Y112766D01*
X110192Y112631D01*
X110623Y112521D01*
X111083Y112435D01*
X111573Y112374D01*
X112092Y112337D01*
X112641Y112325D01*
X113231Y112340D01*
G37*
G36*
X176555Y117501D02*
X183439Y117501D01*
X183439Y118885D01*
X176555Y118885D01*
X176555Y123474D01*
X183649Y123474D01*
X183649Y124841D01*
X174882Y124841D01*
X174882Y112500D01*
X176555Y112500D01*
X176555Y117501D01*
G37*
G36*
X155547Y113840D02*
X149109Y113840D01*
X149261Y114150D01*
X149455Y114465D01*
X149690Y114787D01*
X149967Y115114D01*
X150291Y115455D01*
X150666Y115816D01*
X151092Y116197D01*
X151570Y116599D01*
X152412Y117295D01*
X153105Y117893D01*
X153651Y118394D01*
X154049Y118797D01*
X154353Y119152D01*
X154617Y119507D01*
X154841Y119862D01*
X155026Y120216D01*
X155169Y120572D01*
X155272Y120928D01*
X155333Y121285D01*
X155354Y121644D01*
X155338Y122037D01*
X155291Y122408D01*
X155213Y122755D01*
X155103Y123079D01*
X154962Y123380D01*
X154790Y123658D01*
X154586Y123913D01*
X154351Y124144D01*
X154087Y124351D01*
X153796Y124530D01*
X153478Y124681D01*
X153133Y124805D01*
X152761Y124901D01*
X152362Y124970D01*
X151936Y125011D01*
X151483Y125025D01*
X151068Y125011D01*
X150672Y124970D01*
X150295Y124902D01*
X149938Y124806D01*
X149600Y124683D01*
X149281Y124532D01*
X148982Y124354D01*
X148702Y124149D01*
X148446Y123920D01*
X148218Y123673D01*
X148018Y123407D01*
X147847Y123122D01*
X147704Y122818D01*
X147589Y122495D01*
X147503Y122153D01*
X147445Y121793D01*
X149057Y121644D01*
X149093Y121884D01*
X149147Y122111D01*
X149218Y122324D01*
X149305Y122523D01*
X149409Y122708D01*
X149530Y122880D01*
X149668Y123037D01*
X149823Y123181D01*
X149992Y123309D01*
X150171Y123421D01*
X150362Y123515D01*
X150564Y123592D01*
X150777Y123651D01*
X151001Y123694D01*
X151236Y123720D01*
X151483Y123728D01*
X151740Y123720D01*
X151984Y123693D01*
X152212Y123650D01*
X152426Y123588D01*
X152626Y123509D01*
X152811Y123413D01*
X152982Y123299D01*
X153138Y123168D01*
X153278Y123021D01*
X153399Y122859D01*
X153501Y122683D01*
X153585Y122493D01*
X153650Y122289D01*
X153696Y122071D01*
X153724Y121838D01*
X153734Y121591D01*
X153712Y121225D01*
X153647Y120878D01*
X153539Y120550D01*
X153388Y120243D01*
X153201Y119948D01*
X152988Y119660D01*
X152748Y119379D01*
X152481Y119104D01*
X151887Y118561D01*
X151224Y118018D01*
X150525Y117452D01*
X149819Y116840D01*
X149468Y116513D01*
X149126Y116168D01*
X148791Y115804D01*
X148465Y115421D01*
X148156Y115014D01*
X147871Y114577D01*
X147611Y114110D01*
X147375Y113612D01*
X147375Y112500D01*
X155547Y112500D01*
X155547Y113840D01*
G37*
G36*
X145604Y113840D02*
X142600Y113840D01*
X142600Y124841D01*
X141146Y124841D01*
X138229Y122835D01*
X138229Y121346D01*
X141015Y123334D01*
X141015Y113840D01*
X137870Y113840D01*
X137870Y112500D01*
X145604Y112500D01*
X145604Y113840D01*
G37*
G36*
X173394Y125498D02*
X172010Y125498D01*
X168410Y112325D01*
X169829Y112325D01*
X173394Y125498D01*
G37*
G36*
X135712Y117965D02*
X131332Y117965D01*
X131332Y116564D01*
X135712Y116564D01*
X135712Y117965D01*
G37*
G36*
X103170Y409913D02*
X103158Y410353D01*
X103122Y410780D01*
X103063Y411194D01*
X102980Y411594D01*
X102872Y411982D01*
X102741Y412356D01*
X102587Y412718D01*
X102408Y413066D01*
X102207Y413398D01*
X101985Y413710D01*
X101742Y414003D01*
X101479Y414277D01*
X101194Y414531D01*
X100888Y414765D01*
X100562Y414981D01*
X100214Y415176D01*
X99849Y415351D01*
X99468Y415502D01*
X99073Y415630D01*
X98663Y415735D01*
X98238Y415816D01*
X97797Y415874D01*
X97343Y415909D01*
X96873Y415921D01*
X96515Y415914D01*
X96169Y415894D01*
X95832Y415861D01*
X95506Y415814D01*
X95190Y415755D01*
X94885Y415681D01*
X94590Y415595D01*
X94305Y415495D01*
X94031Y415382D01*
X93767Y415256D01*
X93514Y415116D01*
X93270Y414963D01*
X93038Y414796D01*
X92815Y414617D01*
X92603Y414424D01*
X92401Y414217D01*
X92211Y413999D01*
X92033Y413769D01*
X91867Y413528D01*
X91714Y413276D01*
X91572Y413013D01*
X91443Y412738D01*
X91327Y412453D01*
X91222Y412156D01*
X91130Y411848D01*
X91050Y411529D01*
X90983Y411198D01*
X90928Y410857D01*
X90885Y410504D01*
X90854Y410140D01*
X90835Y409765D01*
X90829Y409378D01*
X90829Y405297D01*
X103170Y405297D01*
X103170Y409913D01*
G37*
%LPC*%
G36*
X92169Y406970D02*
X92169Y409343D01*
X92188Y409921D01*
X92245Y410464D01*
X92339Y410972D01*
X92470Y411444D01*
X92640Y411882D01*
X92847Y412284D01*
X93091Y412651D01*
X93374Y412982D01*
X93692Y413277D01*
X94044Y413532D01*
X94430Y413748D01*
X94851Y413925D01*
X95305Y414063D01*
X95793Y414161D01*
X96316Y414220D01*
X96873Y414239D01*
X97247Y414231D01*
X97609Y414205D01*
X97959Y414162D01*
X98296Y414101D01*
X98620Y414024D01*
X98932Y413929D01*
X99231Y413817D01*
X99518Y413688D01*
X99790Y413542D01*
X100045Y413382D01*
X100285Y413207D01*
X100507Y413016D01*
X100714Y412811D01*
X100904Y412591D01*
X101077Y412356D01*
X101234Y412107D01*
X101374Y411844D01*
X101495Y411572D01*
X101597Y411289D01*
X101681Y410995D01*
X101746Y410692D01*
X101793Y410378D01*
X101821Y410054D01*
X101830Y409720D01*
X101830Y406970D01*
X92169Y406970D01*
G37*
%LPD*%
G36*
X103170Y425863D02*
X101830Y425863D01*
X101830Y422859D01*
X90829Y422859D01*
X90829Y421405D01*
X92835Y418488D01*
X94324Y418488D01*
X92336Y421274D01*
X101830Y421274D01*
X101830Y418129D01*
X103170Y418129D01*
X103170Y425863D01*
G37*
G36*
X190279Y411089D02*
X190987Y411139D01*
X191648Y411222D01*
X192262Y411339D01*
X192830Y411490D01*
X193352Y411673D01*
X193827Y411890D01*
X194255Y412141D01*
X194635Y412424D01*
X194964Y412741D01*
X195242Y413091D01*
X195470Y413474D01*
X195647Y413890D01*
X195774Y414340D01*
X195818Y414577D01*
X195850Y414822D01*
X195869Y415076D01*
X195875Y415338D01*
X195869Y415600D01*
X195850Y415853D01*
X195818Y416099D01*
X195773Y416337D01*
X195646Y416788D01*
X195468Y417206D01*
X195239Y417593D01*
X194959Y417946D01*
X194628Y418268D01*
X194246Y418556D01*
X193816Y418812D01*
X193340Y419033D01*
X192819Y419221D01*
X192251Y419374D01*
X191638Y419493D01*
X190980Y419579D01*
X190275Y419630D01*
X189525Y419647D01*
X188763Y419631D01*
X188049Y419582D01*
X187384Y419501D01*
X186766Y419387D01*
X186197Y419241D01*
X185676Y419063D01*
X185203Y418852D01*
X184778Y418609D01*
X184402Y418332D01*
X184077Y418018D01*
X183801Y417670D01*
X183576Y417285D01*
X183401Y416865D01*
X183332Y416642D01*
X183275Y416409D01*
X183232Y416168D01*
X183200Y415917D01*
X183182Y415658D01*
X183175Y415390D01*
X183182Y415115D01*
X183200Y414848D01*
X183231Y414592D01*
X183274Y414344D01*
X183330Y414106D01*
X183398Y413878D01*
X183572Y413449D01*
X183795Y413058D01*
X184067Y412704D01*
X184389Y412388D01*
X184761Y412110D01*
X185182Y411867D01*
X185653Y411656D01*
X186174Y411478D01*
X186744Y411332D01*
X187365Y411218D01*
X188035Y411137D01*
X188755Y411088D01*
X189525Y411072D01*
X190279Y411089D01*
G37*
%LPC*%
G36*
X188872Y412676D02*
X188267Y412706D01*
X187710Y412756D01*
X187200Y412825D01*
X186738Y412914D01*
X186323Y413023D01*
X185956Y413152D01*
X185636Y413301D01*
X185359Y413473D01*
X185119Y413670D01*
X184916Y413893D01*
X184750Y414141D01*
X184620Y414415D01*
X184528Y414714D01*
X184473Y415039D01*
X184454Y415390D01*
X184473Y415732D01*
X184529Y416049D01*
X184623Y416342D01*
X184754Y416609D01*
X184923Y416851D01*
X185129Y417068D01*
X185373Y417260D01*
X185654Y417426D01*
X185977Y417571D01*
X186346Y417697D01*
X186761Y417803D01*
X187222Y417890D01*
X187729Y417957D01*
X188282Y418005D01*
X188880Y418034D01*
X189525Y418044D01*
X190148Y418034D01*
X190730Y418003D01*
X191269Y417953D01*
X191767Y417882D01*
X192224Y417791D01*
X192639Y417679D01*
X193012Y417548D01*
X193344Y417396D01*
X193635Y417222D01*
X193888Y417025D01*
X194102Y416805D01*
X194277Y416562D01*
X194413Y416295D01*
X194510Y416005D01*
X194568Y415692D01*
X194588Y415355D01*
X194569Y415017D01*
X194512Y414702D01*
X194416Y414411D01*
X194283Y414143D01*
X194112Y413899D01*
X193903Y413679D01*
X193656Y413483D01*
X193370Y413310D01*
X193044Y413159D01*
X192673Y413028D01*
X192259Y412918D01*
X191800Y412827D01*
X191298Y412757D01*
X190751Y412706D01*
X190160Y412676D01*
X189525Y412666D01*
X188872Y412676D01*
G37*
%LPD*%
G36*
X195700Y390610D02*
X190576Y390610D01*
X190576Y394455D01*
X195700Y397660D01*
X195700Y399587D01*
X192647Y397575D01*
X190384Y396084D01*
X190311Y396427D01*
X190218Y396751D01*
X190102Y397056D01*
X189965Y397342D01*
X189873Y397498D01*
X189807Y397609D01*
X189627Y397856D01*
X189425Y398085D01*
X189201Y398295D01*
X188960Y398483D01*
X188705Y398646D01*
X188437Y398784D01*
X188155Y398896D01*
X187859Y398984D01*
X187549Y399046D01*
X187226Y399084D01*
X186889Y399097D01*
X186484Y399079D01*
X186103Y399026D01*
X185744Y398937D01*
X185408Y398813D01*
X185094Y398654D01*
X184804Y398459D01*
X184537Y398228D01*
X184292Y397962D01*
X184073Y397664D01*
X183884Y397336D01*
X183724Y396978D01*
X183592Y396591D01*
X183490Y396173D01*
X183418Y395726D01*
X183374Y395250D01*
X183359Y394744D01*
X183359Y388937D01*
X195700Y388937D01*
X195700Y390610D01*
G37*
%LPC*%
G36*
X184699Y390610D02*
X184699Y394577D01*
X184708Y394911D01*
X184735Y395224D01*
X184779Y395518D01*
X184841Y395791D01*
X184920Y396045D01*
X185017Y396278D01*
X185132Y396491D01*
X185264Y396684D01*
X185413Y396855D01*
X185579Y397004D01*
X185760Y397129D01*
X185957Y397232D01*
X186171Y397312D01*
X186400Y397369D01*
X186645Y397403D01*
X186906Y397415D01*
X187177Y397404D01*
X187432Y397370D01*
X187671Y397313D01*
X187895Y397234D01*
X188104Y397133D01*
X188297Y397008D01*
X188474Y396862D01*
X188636Y396692D01*
X188781Y396502D01*
X188906Y396294D01*
X189013Y396066D01*
X189099Y395820D01*
X189167Y395555D01*
X189215Y395271D01*
X189244Y394968D01*
X189254Y394647D01*
X189254Y390610D01*
X184699Y390610D01*
G37*
%LPD*%
G36*
X195700Y409503D02*
X194360Y409503D01*
X194360Y406499D01*
X183359Y406499D01*
X183359Y405045D01*
X185365Y402128D01*
X186854Y402128D01*
X184866Y404913D01*
X194360Y404913D01*
X194360Y401769D01*
X195700Y401769D01*
X195700Y409503D01*
G37*
D10*
X151160Y427400D02*
X151160Y400640D01*
X123160Y400640D02*
X123160Y427400D01*
X135860Y393020D02*
X138460Y393020D01*
X138460Y435020D02*
X135860Y435020D01*
D11*
X129110Y414020D02*
X129112Y414218D01*
X129120Y414415D01*
X129132Y414612D01*
X129149Y414809D01*
X129171Y415005D01*
X129197Y415201D01*
X129229Y415396D01*
X129265Y415590D01*
X129306Y415784D01*
X129351Y415976D01*
X129402Y416167D01*
X129457Y416357D01*
X129516Y416545D01*
X129581Y416732D01*
X129649Y416917D01*
X129723Y417101D01*
X129801Y417282D01*
X129883Y417462D01*
X129970Y417639D01*
X130061Y417815D01*
X130156Y417988D01*
X130255Y418159D01*
X130359Y418327D01*
X130467Y418492D01*
X130578Y418655D01*
X130694Y418815D01*
X130814Y418973D01*
X130937Y419127D01*
X131064Y419278D01*
X131195Y419426D01*
X131330Y419571D01*
X131468Y419712D01*
X131609Y419850D01*
X131754Y419985D01*
X131902Y420116D01*
X132053Y420243D01*
X132207Y420366D01*
X132365Y420486D01*
X132525Y420602D01*
X132688Y420713D01*
X132853Y420821D01*
X133021Y420925D01*
X133192Y421024D01*
X133365Y421119D01*
X133541Y421210D01*
X133718Y421297D01*
X133898Y421379D01*
X134079Y421457D01*
X134263Y421531D01*
X134448Y421599D01*
X134635Y421664D01*
X134823Y421723D01*
X135013Y421778D01*
X135204Y421829D01*
X135396Y421874D01*
X135590Y421915D01*
X135784Y421951D01*
X135979Y421983D01*
X136175Y422009D01*
X136371Y422031D01*
X136568Y422048D01*
X136765Y422060D01*
X136962Y422068D01*
X137160Y422070D01*
X137358Y422068D01*
X137555Y422060D01*
X137752Y422048D01*
X137949Y422031D01*
X138145Y422009D01*
X138341Y421983D01*
X138536Y421951D01*
X138730Y421915D01*
X138924Y421874D01*
X139116Y421829D01*
X139307Y421778D01*
X139497Y421723D01*
X139685Y421664D01*
X139872Y421599D01*
X140057Y421531D01*
X140241Y421457D01*
X140422Y421379D01*
X140602Y421297D01*
X140779Y421210D01*
X140955Y421119D01*
X141128Y421024D01*
X141299Y420925D01*
X141467Y420821D01*
X141632Y420713D01*
X141795Y420602D01*
X141955Y420486D01*
X142113Y420366D01*
X142267Y420243D01*
X142418Y420116D01*
X142566Y419985D01*
X142711Y419850D01*
X142852Y419712D01*
X142990Y419571D01*
X143125Y419426D01*
X143256Y419278D01*
X143383Y419127D01*
X143506Y418973D01*
X143626Y418815D01*
X143742Y418655D01*
X143853Y418492D01*
X143961Y418327D01*
X144065Y418159D01*
X144164Y417988D01*
X144259Y417815D01*
X144350Y417639D01*
X144437Y417462D01*
X144519Y417282D01*
X144597Y417101D01*
X144671Y416917D01*
X144739Y416732D01*
X144804Y416545D01*
X144863Y416357D01*
X144918Y416167D01*
X144969Y415976D01*
X145014Y415784D01*
X145055Y415590D01*
X145091Y415396D01*
X145123Y415201D01*
X145149Y415005D01*
X145171Y414809D01*
X145188Y414612D01*
X145200Y414415D01*
X145208Y414218D01*
X145210Y414020D01*
X145208Y413822D01*
X145200Y413625D01*
X145188Y413428D01*
X145171Y413231D01*
X145149Y413035D01*
X145123Y412839D01*
X145091Y412644D01*
X145055Y412450D01*
X145014Y412256D01*
X144969Y412064D01*
X144918Y411873D01*
X144863Y411683D01*
X144804Y411495D01*
X144739Y411308D01*
X144671Y411123D01*
X144597Y410939D01*
X144519Y410758D01*
X144437Y410578D01*
X144350Y410401D01*
X144259Y410225D01*
X144164Y410052D01*
X144065Y409881D01*
X143961Y409713D01*
X143853Y409548D01*
X143742Y409385D01*
X143626Y409225D01*
X143506Y409067D01*
X143383Y408913D01*
X143256Y408762D01*
X143125Y408614D01*
X142990Y408469D01*
X142852Y408328D01*
X142711Y408190D01*
X142566Y408055D01*
X142418Y407924D01*
X142267Y407797D01*
X142113Y407674D01*
X141955Y407554D01*
X141795Y407438D01*
X141632Y407327D01*
X141467Y407219D01*
X141299Y407115D01*
X141128Y407016D01*
X140955Y406921D01*
X140779Y406830D01*
X140602Y406743D01*
X140422Y406661D01*
X140241Y406583D01*
X140057Y406509D01*
X139872Y406441D01*
X139685Y406376D01*
X139497Y406317D01*
X139307Y406262D01*
X139116Y406211D01*
X138924Y406166D01*
X138730Y406125D01*
X138536Y406089D01*
X138341Y406057D01*
X138145Y406031D01*
X137949Y406009D01*
X137752Y405992D01*
X137555Y405980D01*
X137358Y405972D01*
X137160Y405970D01*
X136962Y405972D01*
X136765Y405980D01*
X136568Y405992D01*
X136371Y406009D01*
X136175Y406031D01*
X135979Y406057D01*
X135784Y406089D01*
X135590Y406125D01*
X135396Y406166D01*
X135204Y406211D01*
X135013Y406262D01*
X134823Y406317D01*
X134635Y406376D01*
X134448Y406441D01*
X134263Y406509D01*
X134079Y406583D01*
X133898Y406661D01*
X133718Y406743D01*
X133541Y406830D01*
X133365Y406921D01*
X133192Y407016D01*
X133021Y407115D01*
X132853Y407219D01*
X132688Y407327D01*
X132525Y407438D01*
X132365Y407554D01*
X132207Y407674D01*
X132053Y407797D01*
X131902Y407924D01*
X131754Y408055D01*
X131609Y408190D01*
X131468Y408328D01*
X131330Y408469D01*
X131195Y408614D01*
X131064Y408762D01*
X130937Y408913D01*
X130814Y409067D01*
X130694Y409225D01*
X130578Y409385D01*
X130467Y409548D01*
X130359Y409713D01*
X130255Y409881D01*
X130156Y410052D01*
X130061Y410225D01*
X129970Y410401D01*
X129883Y410578D01*
X129801Y410758D01*
X129723Y410939D01*
X129649Y411123D01*
X129581Y411308D01*
X129516Y411495D01*
X129457Y411683D01*
X129402Y411873D01*
X129351Y412064D01*
X129306Y412256D01*
X129265Y412450D01*
X129229Y412644D01*
X129197Y412839D01*
X129171Y413035D01*
X129149Y413231D01*
X129132Y413428D01*
X129120Y413625D01*
X129112Y413822D01*
X129110Y414020D01*
X154555Y408775D02*
X159385Y408775D01*
X154555Y408775D02*
X154555Y411190D01*
X155360Y411995D01*
X156970Y411995D01*
X157775Y411190D01*
X157775Y408775D01*
X159385Y414388D02*
X154555Y414388D01*
X154555Y416804D01*
X155360Y417609D01*
X156970Y417609D01*
X157775Y416804D01*
X157775Y414388D01*
X157775Y415998D02*
X159385Y417609D01*
X154555Y422417D02*
X155360Y423222D01*
X154555Y422417D02*
X154555Y420807D01*
X155360Y420002D01*
X158580Y420002D01*
X159385Y420807D01*
X159385Y422417D01*
X158580Y423222D01*
X156970Y423222D01*
X156970Y421612D01*
D10*
X186440Y427400D02*
X186440Y400640D01*
X214440Y400640D02*
X214440Y427400D01*
X201740Y435020D02*
X199140Y435020D01*
X199140Y393020D02*
X201740Y393020D01*
D11*
X192390Y414020D02*
X192392Y414218D01*
X192400Y414415D01*
X192412Y414612D01*
X192429Y414809D01*
X192451Y415005D01*
X192477Y415201D01*
X192509Y415396D01*
X192545Y415590D01*
X192586Y415784D01*
X192631Y415976D01*
X192682Y416167D01*
X192737Y416357D01*
X192796Y416545D01*
X192861Y416732D01*
X192929Y416917D01*
X193003Y417101D01*
X193081Y417282D01*
X193163Y417462D01*
X193250Y417639D01*
X193341Y417815D01*
X193436Y417988D01*
X193535Y418159D01*
X193639Y418327D01*
X193747Y418492D01*
X193858Y418655D01*
X193974Y418815D01*
X194094Y418973D01*
X194217Y419127D01*
X194344Y419278D01*
X194475Y419426D01*
X194610Y419571D01*
X194748Y419712D01*
X194889Y419850D01*
X195034Y419985D01*
X195182Y420116D01*
X195333Y420243D01*
X195487Y420366D01*
X195645Y420486D01*
X195805Y420602D01*
X195968Y420713D01*
X196133Y420821D01*
X196301Y420925D01*
X196472Y421024D01*
X196645Y421119D01*
X196821Y421210D01*
X196998Y421297D01*
X197178Y421379D01*
X197359Y421457D01*
X197543Y421531D01*
X197728Y421599D01*
X197915Y421664D01*
X198103Y421723D01*
X198293Y421778D01*
X198484Y421829D01*
X198676Y421874D01*
X198870Y421915D01*
X199064Y421951D01*
X199259Y421983D01*
X199455Y422009D01*
X199651Y422031D01*
X199848Y422048D01*
X200045Y422060D01*
X200242Y422068D01*
X200440Y422070D01*
X200638Y422068D01*
X200835Y422060D01*
X201032Y422048D01*
X201229Y422031D01*
X201425Y422009D01*
X201621Y421983D01*
X201816Y421951D01*
X202010Y421915D01*
X202204Y421874D01*
X202396Y421829D01*
X202587Y421778D01*
X202777Y421723D01*
X202965Y421664D01*
X203152Y421599D01*
X203337Y421531D01*
X203521Y421457D01*
X203702Y421379D01*
X203882Y421297D01*
X204059Y421210D01*
X204235Y421119D01*
X204408Y421024D01*
X204579Y420925D01*
X204747Y420821D01*
X204912Y420713D01*
X205075Y420602D01*
X205235Y420486D01*
X205393Y420366D01*
X205547Y420243D01*
X205698Y420116D01*
X205846Y419985D01*
X205991Y419850D01*
X206132Y419712D01*
X206270Y419571D01*
X206405Y419426D01*
X206536Y419278D01*
X206663Y419127D01*
X206786Y418973D01*
X206906Y418815D01*
X207022Y418655D01*
X207133Y418492D01*
X207241Y418327D01*
X207345Y418159D01*
X207444Y417988D01*
X207539Y417815D01*
X207630Y417639D01*
X207717Y417462D01*
X207799Y417282D01*
X207877Y417101D01*
X207951Y416917D01*
X208019Y416732D01*
X208084Y416545D01*
X208143Y416357D01*
X208198Y416167D01*
X208249Y415976D01*
X208294Y415784D01*
X208335Y415590D01*
X208371Y415396D01*
X208403Y415201D01*
X208429Y415005D01*
X208451Y414809D01*
X208468Y414612D01*
X208480Y414415D01*
X208488Y414218D01*
X208490Y414020D01*
X208488Y413822D01*
X208480Y413625D01*
X208468Y413428D01*
X208451Y413231D01*
X208429Y413035D01*
X208403Y412839D01*
X208371Y412644D01*
X208335Y412450D01*
X208294Y412256D01*
X208249Y412064D01*
X208198Y411873D01*
X208143Y411683D01*
X208084Y411495D01*
X208019Y411308D01*
X207951Y411123D01*
X207877Y410939D01*
X207799Y410758D01*
X207717Y410578D01*
X207630Y410401D01*
X207539Y410225D01*
X207444Y410052D01*
X207345Y409881D01*
X207241Y409713D01*
X207133Y409548D01*
X207022Y409385D01*
X206906Y409225D01*
X206786Y409067D01*
X206663Y408913D01*
X206536Y408762D01*
X206405Y408614D01*
X206270Y408469D01*
X206132Y408328D01*
X205991Y408190D01*
X205846Y408055D01*
X205698Y407924D01*
X205547Y407797D01*
X205393Y407674D01*
X205235Y407554D01*
X205075Y407438D01*
X204912Y407327D01*
X204747Y407219D01*
X204579Y407115D01*
X204408Y407016D01*
X204235Y406921D01*
X204059Y406830D01*
X203882Y406743D01*
X203702Y406661D01*
X203521Y406583D01*
X203337Y406509D01*
X203152Y406441D01*
X202965Y406376D01*
X202777Y406317D01*
X202587Y406262D01*
X202396Y406211D01*
X202204Y406166D01*
X202010Y406125D01*
X201816Y406089D01*
X201621Y406057D01*
X201425Y406031D01*
X201229Y406009D01*
X201032Y405992D01*
X200835Y405980D01*
X200638Y405972D01*
X200440Y405970D01*
X200242Y405972D01*
X200045Y405980D01*
X199848Y405992D01*
X199651Y406009D01*
X199455Y406031D01*
X199259Y406057D01*
X199064Y406089D01*
X198870Y406125D01*
X198676Y406166D01*
X198484Y406211D01*
X198293Y406262D01*
X198103Y406317D01*
X197915Y406376D01*
X197728Y406441D01*
X197543Y406509D01*
X197359Y406583D01*
X197178Y406661D01*
X196998Y406743D01*
X196821Y406830D01*
X196645Y406921D01*
X196472Y407016D01*
X196301Y407115D01*
X196133Y407219D01*
X195968Y407327D01*
X195805Y407438D01*
X195645Y407554D01*
X195487Y407674D01*
X195333Y407797D01*
X195182Y407924D01*
X195034Y408055D01*
X194889Y408190D01*
X194748Y408328D01*
X194610Y408469D01*
X194475Y408614D01*
X194344Y408762D01*
X194217Y408913D01*
X194094Y409067D01*
X193974Y409225D01*
X193858Y409385D01*
X193747Y409548D01*
X193639Y409713D01*
X193535Y409881D01*
X193436Y410052D01*
X193341Y410225D01*
X193250Y410401D01*
X193163Y410578D01*
X193081Y410758D01*
X193003Y410939D01*
X192929Y411123D01*
X192861Y411308D01*
X192796Y411495D01*
X192737Y411683D01*
X192682Y411873D01*
X192631Y412064D01*
X192586Y412256D01*
X192545Y412450D01*
X192509Y412644D01*
X192477Y412839D01*
X192451Y413035D01*
X192429Y413231D01*
X192412Y413428D01*
X192400Y413625D01*
X192392Y413822D01*
X192390Y414020D01*
X218851Y408775D02*
X223681Y408775D01*
X218851Y408775D02*
X218851Y411190D01*
X219656Y411995D01*
X221266Y411995D01*
X222071Y411190D01*
X222071Y408775D01*
X222071Y410385D02*
X223681Y411995D01*
X218851Y414388D02*
X218851Y417608D01*
X218851Y414388D02*
X223681Y414388D01*
X223681Y417608D01*
X221266Y415998D02*
X221266Y414388D01*
X218851Y422417D02*
X219656Y423222D01*
X218851Y422417D02*
X218851Y420807D01*
X219656Y420002D01*
X220461Y420002D01*
X221266Y420807D01*
X221266Y422417D01*
X222071Y423222D01*
X222876Y423222D01*
X223681Y422417D01*
X223681Y420807D01*
X222876Y420002D01*
D12*
X295910Y368300D02*
X295910Y342900D01*
X321310Y342900D01*
X321310Y368300D01*
X295910Y368300D01*
D13*
X327660Y355600D02*
X384810Y355600D01*
D12*
X295910Y342900D02*
X295910Y317500D01*
X321310Y317500D01*
X321310Y342900D01*
D13*
X327660Y330200D02*
X384810Y330200D01*
D12*
X295910Y317500D02*
X295910Y292100D01*
X321310Y292100D01*
X321310Y317500D01*
D13*
X327660Y304800D02*
X384810Y304800D01*
D12*
X295910Y292100D02*
X295910Y266700D01*
X321310Y266700D01*
X321310Y292100D01*
D13*
X327660Y279400D02*
X384810Y279400D01*
D12*
X295910Y266700D02*
X295910Y241300D01*
X321310Y241300D01*
X321310Y266700D01*
D13*
X327660Y254000D02*
X384810Y254000D01*
D12*
X295910Y241300D02*
X295910Y215900D01*
X321310Y215900D01*
X321310Y241300D01*
D13*
X327660Y228600D02*
X384810Y228600D01*
D12*
X295910Y215900D02*
X295910Y190500D01*
X321310Y190500D01*
X321310Y215900D01*
D13*
X327660Y203200D02*
X384810Y203200D01*
D12*
X295910Y190500D02*
X295910Y165100D01*
X321310Y165100D01*
X321310Y190500D01*
D13*
X327660Y177800D02*
X384810Y177800D01*
D12*
X295910Y165100D02*
X295910Y139700D01*
X321310Y139700D01*
X321310Y165100D01*
D13*
X327660Y152400D02*
X384810Y152400D01*
D12*
X295910Y139700D02*
X295910Y114300D01*
X321310Y114300D01*
X321310Y139700D01*
D13*
X327660Y127000D02*
X384810Y127000D01*
D12*
X295910Y114300D02*
X295910Y88900D01*
X321310Y88900D01*
X321310Y114300D01*
D13*
X327660Y101600D02*
X384810Y101600D01*
D14*
X323850Y355600D03*
X323850Y330200D03*
X323850Y304800D03*
X323850Y279400D03*
X323850Y254000D03*
X323850Y228600D03*
X323850Y203200D03*
X323850Y177800D03*
X323850Y152400D03*
X323850Y127000D03*
X323850Y101600D03*
D15*
X290830Y355600D03*
X290830Y330200D03*
X290830Y304800D03*
X290830Y279400D03*
X290830Y254000D03*
X290830Y228600D03*
X290830Y203200D03*
X290830Y177800D03*
X290830Y152400D03*
X290830Y127000D03*
X290830Y101600D03*
D12*
X71120Y36830D02*
X45720Y36830D01*
X71120Y36830D02*
X71120Y62230D01*
X45720Y62230D01*
X45720Y36830D01*
D13*
X58420Y68580D02*
X58420Y125730D01*
D12*
X71120Y36830D02*
X96520Y36830D01*
X96520Y62230D01*
X71120Y62230D01*
D13*
X83820Y68580D02*
X83820Y125730D01*
D12*
X96520Y36830D02*
X121920Y36830D01*
X121920Y62230D01*
X96520Y62230D01*
D13*
X109220Y68580D02*
X109220Y125730D01*
D12*
X121920Y36830D02*
X147320Y36830D01*
X147320Y62230D01*
X121920Y62230D01*
D13*
X134620Y68580D02*
X134620Y125730D01*
D16*
X58420Y64770D03*
X83820Y64770D03*
X109220Y64770D03*
X134620Y64770D03*
D17*
X58420Y31750D03*
X83820Y31750D03*
X109220Y31750D03*
X134620Y31750D03*
D11*
X84380Y270200D02*
X64380Y270200D01*
X64380Y265200D01*
X64380Y30200D02*
X224380Y30200D01*
X64380Y30200D02*
X64380Y105200D01*
X224380Y105200D02*
X224380Y30200D01*
X224380Y265200D02*
X224380Y270200D01*
X204380Y270200D01*
D18*
X209380Y95200D02*
X209380Y40200D01*
X189380Y40200D01*
X164380Y40200D01*
X164380Y65200D01*
X144380Y65200D01*
X144380Y40200D01*
X124380Y40200D01*
X124380Y65200D01*
X104380Y65200D01*
X104380Y40200D01*
X79380Y40200D01*
X79380Y75200D01*
X189380Y95200D02*
X189380Y40200D01*
D19*
X84120Y404020D02*
X84120Y430619D01*
X64222Y430619D01*
X64222Y404020D01*
M02*
