G04 EAGLE Gerber X2 export*
%TF.Part,Single*%
%TF.FileFunction,Paste,Top*%
%TF.FilePolarity,Positive*%
%TF.GenerationSoftware,Autodesk,EAGLE,9.7.0*%
%TF.CreationDate,2022-02-15T16:10:41Z*%
G75*
%MOMM*%
%FSLAX34Y34*%
%LPD*%
%INSolderpaste Top*%
%AMOC8*
5,1,8,0,0,1.08239X$1,22.5*%
G01*
G04 Define Apertures*
%ADD10R,1.000000X0.900000*%
%ADD11R,1.500000X1.300000*%
%ADD12R,1.300000X1.500000*%
%ADD13R,2.000000X1.200000*%
%ADD14R,1.200000X1.500000*%
%ADD15R,1.361800X0.761800*%
D10*
X129160Y434520D03*
X145160Y434520D03*
X145160Y393520D03*
X129160Y393520D03*
X208440Y393520D03*
X192440Y393520D03*
X192440Y434520D03*
X208440Y434520D03*
D11*
X27940Y425300D03*
X27940Y406300D03*
X27940Y382880D03*
X27940Y363880D03*
X27940Y321920D03*
X27940Y302920D03*
D12*
X107340Y345440D03*
X126340Y345440D03*
D11*
X27940Y260960D03*
X27940Y241960D03*
D12*
X183540Y345440D03*
X202540Y345440D03*
D13*
X219380Y255200D03*
X219380Y235200D03*
X219380Y215200D03*
X219380Y195200D03*
X219380Y175200D03*
X219380Y155200D03*
X219380Y135200D03*
X219380Y115200D03*
D14*
X194380Y270200D03*
X174380Y270200D03*
X154380Y270200D03*
X134380Y270200D03*
X114380Y270200D03*
X94380Y270200D03*
D13*
X69380Y255200D03*
X69380Y235200D03*
X69380Y215200D03*
X69380Y195200D03*
X69380Y175200D03*
X69380Y155200D03*
X69380Y135200D03*
X69380Y115200D03*
D15*
X74171Y424270D03*
X74171Y403770D03*
D11*
X170300Y423520D03*
X170300Y404520D03*
M02*
