G04 EAGLE Gerber X2 export*
%TF.Part,Single*%
%TF.FileFunction,Soldermask,Bot,1*%
%TF.FilePolarity,Negative*%
%TF.GenerationSoftware,Autodesk,EAGLE,9.7.0*%
%TF.CreationDate,2022-02-15T16:10:41Z*%
G75*
%MOMM*%
%FSLAX34Y34*%
%LPD*%
%INSoldermask Bottom*%
%AMOC8*
5,1,8,0,0,1.08239X$1,22.5*%
G01*
G04 Define Apertures*
%ADD10C,1.203200*%
%ADD11R,1.703200X1.503200*%
%ADD12R,1.101100X2.063500*%
%ADD13R,3.392300X2.063500*%
%ADD14C,1.727200*%
%ADD15R,1.600500X3.618500*%
%ADD16C,2.108200*%
D10*
X251460Y406400D03*
X251460Y50800D03*
D11*
X170180Y155600D03*
X170180Y174600D03*
D12*
X96380Y348250D03*
X119380Y348250D03*
X142380Y348250D03*
D13*
X119380Y286750D03*
D14*
X269240Y355600D02*
X284480Y355600D01*
X284480Y330200D02*
X269240Y330200D01*
X269240Y304800D02*
X284480Y304800D01*
X284480Y279400D02*
X269240Y279400D01*
X269240Y254000D02*
X284480Y254000D01*
X284480Y228600D02*
X269240Y228600D01*
X269240Y203200D02*
X284480Y203200D01*
X284480Y177800D02*
X269240Y177800D01*
X269240Y152400D02*
X284480Y152400D01*
X284480Y127000D02*
X269240Y127000D01*
X269240Y101600D02*
X284480Y101600D01*
X58420Y25400D02*
X58420Y10160D01*
X83820Y10160D02*
X83820Y25400D01*
X109220Y25400D02*
X109220Y10160D01*
X134620Y10160D02*
X134620Y25400D01*
D11*
X139700Y177140D03*
X139700Y158140D03*
X111760Y158140D03*
X111760Y177140D03*
D15*
X147565Y408940D03*
X106435Y408940D03*
D16*
X104140Y316230D03*
X132080Y374650D03*
X249277Y306197D03*
X135890Y316230D03*
X163830Y368300D03*
X38100Y50800D03*
X186690Y135890D03*
X113030Y76200D03*
X40640Y440055D03*
X67310Y87630D03*
X50800Y412750D03*
X44578Y346582D03*
X33020Y189230D03*
X43180Y214630D03*
X49537Y292100D03*
X62230Y387350D03*
X230251Y358140D03*
X190627Y172543D03*
X34290Y87630D03*
X185420Y306070D03*
X189230Y218440D03*
X153670Y102616D03*
X132080Y204470D03*
X93980Y139700D03*
X68580Y361950D03*
X98557Y234950D03*
M02*
