G04 EAGLE Gerber X2 export*
%TF.Part,Single*%
%TF.FileFunction,Soldermask,Top,1*%
%TF.FilePolarity,Negative*%
%TF.GenerationSoftware,Autodesk,EAGLE,9.7.0*%
%TF.CreationDate,2022-02-15T16:10:41Z*%
G75*
%MOMM*%
%FSLAX34Y34*%
%LPD*%
%INSoldermask Top*%
%AMOC8*
5,1,8,0,0,1.08239X$1,22.5*%
G01*
G04 Define Apertures*
%ADD10C,1.203200*%
%ADD11R,1.203200X1.103200*%
%ADD12C,1.727200*%
%ADD13R,1.703200X1.503200*%
%ADD14R,1.503200X1.703200*%
%ADD15R,2.203200X1.403200*%
%ADD16R,1.403200X1.703200*%
%ADD17R,1.565000X0.965000*%
%ADD18C,2.108200*%
D10*
X251460Y406400D03*
X251460Y50800D03*
D11*
X129160Y434520D03*
X145160Y434520D03*
X145160Y393520D03*
X129160Y393520D03*
X208440Y393520D03*
X192440Y393520D03*
X192440Y434520D03*
X208440Y434520D03*
D12*
X269240Y355600D02*
X284480Y355600D01*
X284480Y330200D02*
X269240Y330200D01*
X269240Y304800D02*
X284480Y304800D01*
X284480Y279400D02*
X269240Y279400D01*
X269240Y254000D02*
X284480Y254000D01*
X284480Y228600D02*
X269240Y228600D01*
X269240Y203200D02*
X284480Y203200D01*
X284480Y177800D02*
X269240Y177800D01*
X269240Y152400D02*
X284480Y152400D01*
X284480Y127000D02*
X269240Y127000D01*
X269240Y101600D02*
X284480Y101600D01*
D13*
X27940Y425300D03*
X27940Y406300D03*
X27940Y382880D03*
X27940Y363880D03*
X27940Y321920D03*
X27940Y302920D03*
D14*
X107340Y345440D03*
X126340Y345440D03*
D13*
X27940Y260960D03*
X27940Y241960D03*
D14*
X183540Y345440D03*
X202540Y345440D03*
D12*
X58420Y25400D02*
X58420Y10160D01*
X83820Y10160D02*
X83820Y25400D01*
X109220Y25400D02*
X109220Y10160D01*
X134620Y10160D02*
X134620Y25400D01*
D15*
X219380Y255200D03*
X219380Y235200D03*
X219380Y215200D03*
X219380Y195200D03*
X219380Y175200D03*
X219380Y155200D03*
X219380Y135200D03*
X219380Y115200D03*
D16*
X194380Y270200D03*
X174380Y270200D03*
X154380Y270200D03*
X134380Y270200D03*
X114380Y270200D03*
X94380Y270200D03*
D15*
X69380Y255200D03*
X69380Y235200D03*
X69380Y215200D03*
X69380Y195200D03*
X69380Y175200D03*
X69380Y155200D03*
X69380Y135200D03*
X69380Y115200D03*
D17*
X74171Y424270D03*
X74171Y403770D03*
D13*
X170300Y423520D03*
X170300Y404520D03*
D18*
X104140Y316230D03*
X132080Y374650D03*
X249277Y306197D03*
X135890Y316230D03*
X163830Y368300D03*
X38100Y50800D03*
X186690Y135890D03*
X113030Y76200D03*
X40640Y440055D03*
X67310Y87630D03*
X50800Y412750D03*
X44578Y346582D03*
X33020Y189230D03*
X43180Y214630D03*
X49537Y292100D03*
X62230Y387350D03*
X230251Y358140D03*
X190627Y172543D03*
X34290Y87630D03*
X185420Y306070D03*
X189230Y218440D03*
X153670Y102616D03*
X132080Y204470D03*
X93980Y139700D03*
X68580Y361950D03*
X98557Y234950D03*
M02*
